<?xml version="1.0" encoding="UTF-8"?>
<!DOCTYPE svg PUBLIC "-//W3C//DTD SVG 1.1//EN" "http://www.w3.org/Graphics/SVG/1.1/DTD/svg11.dtd">
<!-- Creator: CorelDRAW 2020 (64-Bit) -->
<svg xmlns="http://www.w3.org/2000/svg" xml:space="preserve" width="50.8mm" height="50.8mm" version="1.1" style="shape-rendering:geometricPrecision; text-rendering:geometricPrecision; image-rendering:optimizeQuality; fill-rule:evenodd; clip-rule:evenodd"
viewBox="0 0 5080 5080"
 xmlns:xlink="http://www.w3.org/1999/xlink"
 xmlns:xodm="http://www.corel.com/coreldraw/odm/2003">
 <defs>
  <style type="text/css">
   <![CDATA[
    .str0 {stroke:#302E76;stroke-width:7.62;stroke-miterlimit:22.9256}
    .str1 {stroke:#35BBDF;stroke-width:7.62;stroke-miterlimit:22.9256}
    .str2 {stroke:#36BCE0;stroke-width:7.62;stroke-miterlimit:22.9256}
    .fil41 {fill:#1E5890;fill-rule:nonzero}
    .fil24 {fill:#2B3276;fill-rule:nonzero}
    .fil58 {fill:#2D3076;fill-rule:nonzero}
    .fil31 {fill:#2E2F75;fill-rule:nonzero}
    .fil25 {fill:#2F316E;fill-rule:nonzero}
    .fil17 {fill:#302E75;fill-rule:nonzero}
    .fil22 {fill:#302E76;fill-rule:nonzero}
    .fil43 {fill:#322D75;fill-rule:nonzero}
    .fil20 {fill:#34BCE0;fill-rule:nonzero}
    .fil59 {fill:#34BCE1;fill-rule:nonzero}
    .fil18 {fill:#35BBDF;fill-rule:nonzero}
    .fil16 {fill:#35BBE0;fill-rule:nonzero}
    .fil19 {fill:#35BCE0;fill-rule:nonzero}
    .fil40 {fill:#36BBDF;fill-rule:nonzero}
    .fil45 {fill:#36BBE0;fill-rule:nonzero}
    .fil21 {fill:#36BCE0;fill-rule:nonzero}
    .fil60 {fill:#372F5F;fill-rule:nonzero}
    .fil38 {fill:#373055;fill-rule:nonzero}
    .fil26 {fill:#37BAE0;fill-rule:nonzero}
    .fil42 {fill:#37BBE0;fill-rule:nonzero}
    .fil3 {fill:#382B6E;fill-rule:nonzero}
    .fil36 {fill:#382B6F;fill-rule:nonzero}
    .fil54 {fill:#382C6A;fill-rule:nonzero}
    .fil27 {fill:#382C6B;fill-rule:nonzero}
    .fil50 {fill:#382C6D;fill-rule:nonzero}
    .fil2 {fill:#382C6E;fill-rule:nonzero}
    .fil11 {fill:#382D65;fill-rule:nonzero}
    .fil14 {fill:#382D67;fill-rule:nonzero}
    .fil51 {fill:#382D6A;fill-rule:nonzero}
    .fil7 {fill:#382E66;fill-rule:nonzero}
    .fil8 {fill:#382F65;fill-rule:nonzero}
    .fil56 {fill:#38BBDF;fill-rule:nonzero}
    .fil28 {fill:#392A72;fill-rule:nonzero}
    .fil44 {fill:#392B6D;fill-rule:nonzero}
    .fil12 {fill:#392B6E;fill-rule:nonzero}
    .fil6 {fill:#392B71;fill-rule:nonzero}
    .fil1 {fill:#392C6D;fill-rule:nonzero}
    .fil23 {fill:#392D67;fill-rule:nonzero}
    .fil4 {fill:#392E67;fill-rule:nonzero}
    .fil49 {fill:#392E69;fill-rule:nonzero}
    .fil13 {fill:#3A2D6B;fill-rule:nonzero}
    .fil55 {fill:#3ABADF;fill-rule:nonzero}
    .fil15 {fill:#3B3166;fill-rule:nonzero}
    .fil61 {fill:#3B3168;fill-rule:nonzero}
    .fil57 {fill:#463A78;fill-rule:nonzero}
    .fil30 {fill:#51ACD9;fill-rule:nonzero}
    .fil52 {fill:#726F86;fill-rule:nonzero}
    .fil48 {fill:#FCF8FE;fill-rule:nonzero}
    .fil34 {fill:#FCF9FE;fill-rule:nonzero}
    .fil46 {fill:#FCFBFB;fill-rule:nonzero}
    .fil37 {fill:#FCFDFC;fill-rule:nonzero}
    .fil29 {fill:#FDF8FE;fill-rule:nonzero}
    .fil33 {fill:#FDFAFF;fill-rule:nonzero}
    .fil35 {fill:#FDFBFE;fill-rule:nonzero}
    .fil5 {fill:#FDFCFC;fill-rule:nonzero}
    .fil53 {fill:#FDFCFD;fill-rule:nonzero}
    .fil9 {fill:#FDFDFC;fill-rule:nonzero}
    .fil10 {fill:#FDFDFD;fill-rule:nonzero}
    .fil39 {fill:#FDFDFE;fill-rule:nonzero}
    .fil32 {fill:#FEFDFE;fill-rule:nonzero}
    .fil47 {fill:#FEFEFD;fill-rule:nonzero}
    .fil0 {fill:#FEFEFE;fill-rule:nonzero}
   ]]>
  </style>
 </defs>
 <g id="Capa_x0020_1">
  <metadata id="CorelCorpID_0Corel-Layer"/>
  <g id="diseno-ilustracion-vector-icono-tecnologia-billetera-electronica_24911-15214_x0020_28129.svg">
   <g id="_23fefefeff">
    <g>
     <path class="fil0" d="M133.96 1690.15c1.28,-124 113.26,-232.63 236.96,-231.74 587.69,-0.5 1175.38,0.29 1763.17,-0.5 12.01,-0.19 24.12,-0.39 36.33,-0.49 76.24,1.58 152.57,-0.49 228.8,1.77 121.63,7.19 225.24,119.18 221.99,241.4 -0.2,393.86 0.49,787.82 -0.39,1181.77 -0.6,125.78 -114.45,235.88 -239.92,233.72 -666.87,0.3 -1333.75,0 -2000.62,0.2 -93.17,2.65 -183.98,-53.68 -223.38,-137.99 -19.6,-38.8 -24.71,-82.73 -23.73,-125.57 0.99,-131.68 -1.28,-263.26 1.18,-394.85 11.63,0.79 23.34,1.68 34.96,2.66 9.95,33.89 34.77,68.06 73.48,68.65 49.05,6.6 93.47,-41.95 84.11,-90.12 -1.48,-30.92 -33.39,-45.1 -45.5,-70.22 -3.35,-32.8 -1.48,-65.79 -1.09,-98.68 72.29,0 144.69,-1.68 216.97,0.59 15.27,12.7 18.03,35.25 32.8,48.94 13.4,11.33 30.34,17.04 46,24.43 0.59,145.47 0.69,290.84 0,436.31 -33.98,9.75 -68.45,33.58 -70.23,72.29 -7.78,49.54 40.98,95.43 89.83,86.18 36.44,-6.01 55.25,-41.47 70.91,-71.01 472.75,1.67 945.5,0.29 1418.25,0.89 11.13,1.86 17.63,-2.77 19.69,-13.7 -479.05,-2.66 -958.2,-2.17 -1437.25,0.3 -12.61,-36.25 -38.12,-65.99 -76.23,-75.93 0,-144.89 -0.39,-289.67 0.2,-434.45 29.34,-12.21 62.54,-29.15 68.64,-63.92 15.66,-52.49 -36.93,-107.74 -90.02,-96.02 -37.03,4.53 -55.84,39.69 -69.93,70.02 -73.07,-0.39 -146.15,0.89 -219.13,-0.78 -1.68,-105.88 -0.3,-211.76 -0.89,-317.63 35.26,-13.69 64.51,-39.3 74.95,-76.63 98.49,0.59 197.08,-1.57 295.56,1.18 10.06,34.58 35.66,69.14 75.15,69.44 49.55,6.01 92.58,-43.93 82.54,-92.09 -6.7,-52 -72.39,-81.64 -116.32,-54.27 -23.04,12.12 -32.6,37.33 -41.46,60.08 -98.29,2.57 -196.69,0.99 -295.07,0.99 -12.41,-32.6 -34.08,-68.55 -72.89,-70.62 -52.59,-8.47 -101.54,46.78 -85.29,97.9 6.9,34.08 39.99,49.84 68.15,63.63 -0.29,106.07 0.6,212.14 -0.49,318.21 -43.53,1.08 -87.16,1.08 -130.69,-0.1 -1.28,-188.01 -1.09,-376.22 -0.1,-564.24l0 0zm554.2 -176.1c-2.86,31.71 -2.76,63.62 -3.55,95.44 -21.96,-0.2 -43.92,-0.3 -65.89,-0.69 -1.47,-29.94 -1.57,-59.89 -1.47,-89.93 -5.91,0.1 -17.54,0.2 -23.35,0.3 -0.39,24.33 -1.28,48.66 -0.2,73.08 0.79,13.99 -0.29,32.01 16.56,36.84 41.45,5.81 83.71,1.47 125.57,2.95 19.99,-1.58 44.32,4.14 59.78,-12.41 6.31,-33.58 2.95,-68.06 2.86,-102.04 -5.42,0.79 -16.45,2.47 -21.87,3.26 -1.47,29.34 -1.08,58.8 -2.85,88.14 -21.87,0.2 -43.63,0.4 -65.4,0.4 -1.28,-30.24 2.36,-61.17 -4.63,-90.81 -3.84,-1.08 -11.62,-3.44 -15.56,-4.53l0 0zm140.44 13.59c-19.2,30.24 -7.29,69.34 -10.63,103.32 5.12,-0.2 15.46,-0.59 20.68,-0.69 2.17,-11.72 4.53,-23.44 6.9,-35.07 28.36,0.1 56.73,0.1 84.99,0 2.37,11.63 4.63,23.35 6.89,35.07 5.32,0.19 15.87,0.69 21.18,0.88 -4.63,-34.86 12.21,-81.05 -16.45,-107.75 -36.14,-7.87 -79.28,-11.81 -113.56,4.24l0 0zm529.19 -9.85c-0.69,5.52 -1.97,16.45 -2.66,21.87 19.6,0.69 39.3,1.28 58.89,1.87 0.2,30.14 0.3,60.17 0.5,90.31 5.31,-0.1 16.05,-0.19 21.37,-0.29 0.4,-29.95 0.59,-59.78 0.79,-89.73 19.2,-0.69 38.51,-1.18 57.81,-1.87 -0.59,-5.61 -1.97,-16.84 -2.56,-22.36 -44.71,0.89 -89.43,0.99 -134.14,0.2l0 0zm-979.38 1.38c-0.99,37.33 -1.09,74.66 -0.1,112.08 46.78,0.79 93.47,0.98 140.15,-0.39 -0.2,-5.32 -0.59,-15.86 -0.79,-21.18 -39,-0.69 -78,-0.59 -117,-0.69 0.3,-11.02 0.49,-22.06 0.79,-33.09 30.73,-1.57 63.33,5.22 92.87,-4.03 1.28,-4.04 3.94,-11.92 5.22,-15.87 -32.99,-1.37 -66.09,-1.17 -99.18,-1.77l0 -12.99c39.01,-0.79 78.01,-0.69 117.1,-0.5 0.1,-5.32 0.3,-16.06 0.4,-21.37 -46.49,-1.68 -92.97,-1.87 -139.46,-0.2l0 0zm599.7 -0.2c-0.49,37.53 -0.49,75.05 0.5,112.48 33.77,0.59 67.66,0.69 101.44,-0.49 0.1,-5.32 0.1,-15.86 0.1,-21.18 -26.1,-0.49 -52.3,-0.79 -78.4,-0.89 -1.38,-29.93 -1.58,-59.88 -0.99,-89.82 -5.61,0 -16.93,0 -22.65,-0.1l0 0zm115.14 3.65c-2.07,36.05 -0.3,72.09 -0.79,108.14 35.25,1.38 70.62,1.87 105.77,-1.18 -1.27,-4.04 -3.64,-12.11 -4.82,-16.16 -25.71,-6.59 -52.5,-3.83 -78.69,-5.22 0.49,-29.64 1.77,-59.38 -0.99,-89.03 -5.12,0.89 -15.36,2.66 -20.48,3.45l0 0zm114.93 -3.45c-0.49,37.33 -0.58,74.75 0.1,112.18 46.39,0.79 92.78,0.59 139.17,0 -0.1,-5.52 -0.2,-16.35 -0.3,-21.76 -39.1,-0.7 -78.1,-0.2 -117.2,-0.89 0.1,-10.83 0.19,-21.67 0.29,-32.41 32.11,-0.1 64.32,-0.1 96.43,-0.69 -0.3,-5.12 -0.89,-15.36 -1.19,-20.48 -33.09,-0.1 -66.28,0.49 -99.27,-1.97l5.32 -9.36c37.12,-7.87 75.63,-0.29 113.26,-4.03 1.08,-5.12 3.35,-15.37 4.43,-20.49 -46.98,-1.68 -94.06,-1.48 -141.04,-0.1l0 0zm-682.83 63.13c19.7,-2.85 48.07,8.87 60.77,-11.62 -19.99,-1.58 -56.04,-18.51 -60.77,11.62l0 0zm785.07 191.56c-150.4,20.1 -287.4,117.11 -357.03,251.94 -58.11,108.63 -69.43,240.22 -34.87,358.11 54.77,190.68 237.96,336.24 437.1,341.36 161.82,9.56 324.23,-71.99 415.33,-205.64 71.9,-102.43 99.77,-234.01 76.92,-356.93 -22.55,-131.78 -104.5,-252.04 -218.55,-321.67 -93.96,-58.89 -209.19,-82.83 -318.9,-67.17l0 0zm-948.95 201.22c-1.28,60.18 -1.28,120.35 -0.2,180.53 96.03,1.77 192.25,1.28 288.38,0.3 1.57,-60.38 1.28,-120.85 0.1,-181.23 -96.13,-1.08 -192.25,-1.67 -288.28,0.4l0 0zm0.49 416.02c-2.66,128.14 -0.98,256.37 -0.69,384.6 58.31,0.79 116.81,1.67 175.12,-0.79 0.09,-127.84 0.78,-255.77 -0.3,-383.61 -58.01,-1.48 -116.12,-1.19 -174.13,-0.2z"/>
    </g>
   </g>
   <g id="_23392c6dff">
    <path class="fil1" d="M2125.61 314.05c25.02,-7.98 51.02,-12.11 77.32,-13.49 4.72,12.8 14.87,31.22 -2.47,39.5 -20.19,8.36 -42.44,11.72 -64.21,10.83 -14.97,-7.39 -11.23,-23.54 -10.64,-36.84z"/>
   </g>
   <g id="_23382c6eff">
    <path class="fil2" d="M2989.27 319.86c62.24,-4.62 121.43,21.47 180.33,38.02 24.13,5.12 48.26,10.73 71.7,18.62 244.06,78.89 475.22,199.44 677.51,357.22 21.86,9.75 13.69,47.37 -11.52,41.85 -24.04,-11.32 -43.54,-29.93 -65.1,-45.2 -192.55,-139.96 -408.05,-248.49 -635.56,-318.91 -64.21,-28.96 -135.81,-31.91 -202.39,-53.48 -20.09,-2.36 -13.4,-24.52 -14.97,-38.12z"/>
    <path class="fil2" d="M3366.98 3504.62c98.88,-92.68 236.27,-149.31 372.68,-137.99 0.59,12.22 0.99,24.43 1.18,36.75 -55.35,5.9 -111.69,8.36 -164.77,26.59 -147.44,46.88 -267.6,170.68 -309.06,319.79 -14.58,48.16 -16.84,98.59 -21.67,148.33 -12.41,1.18 -24.82,1.08 -37.13,-0.2 -11.92,-146.26 53.38,-293.2 158.77,-393.27z"/>
   </g>
   <g id="_23382b6eff">
    <path class="fil3" d="M1942.72 355.81c31.02,-8.36 62.04,-21.66 94.84,-16.34 0.89,13.29 5.62,36.34 -13.69,39 -246.52,63.62 -483.19,167.53 -693.46,311.52 -68.55,37.13 -122.13,94.25 -185.65,138.38 -18.62,14.38 -42.85,-15.37 -25.41,-30.83 38.11,-39.3 84.2,-69.73 129.31,-100.26 34.18,-29.06 71.41,-54.17 109.33,-77.91 180.82,-115.53 378.39,-204.96 584.73,-263.56z"/>
    <path class="fil3" d="M1468.69 3311.19c193.04,-19.8 392.87,34.66 548.39,151.08 145.86,106.86 252.32,265.43 296.55,440.74 42.65,163.59 27.77,339 -33.19,496 45.11,8.27 90.9,11.91 136.6,14.76 0.69,7 2.07,20.89 2.66,27.88 -51.51,1.78 -102.03,-9.55 -153.25,-12.7 -8.77,14.57 -14.08,32.5 -28.27,43.03l-9.05 -1.57c91,-167.63 117.98,-368.94 72.58,-554.4 -64.11,-277.44 -293.79,-507.31 -571.04,-572.02 -172.36,-42.06 -359.29,-23.45 -519.14,54.07 -180.92,85.98 -325.6,244.84 -393.96,433.25 -92.77,247.21 -46.48,539.23 117.31,746.06l-8.87 2.66c-9.85,-5.52 -17.92,-13.1 -24.23,-22.65 -141.92,-196.59 -182.6,-459.26 -112.38,-690.81 -66.47,-90.71 -130.59,-183.29 -184.66,-282.07 -10.84,-22.36 -33.68,-46.59 -16.85,-71.8 6.7,0.29 20.29,0.78 26.99,1.08 58.31,102.92 117.7,206.04 190.97,299.21 47.18,-104.69 106.96,-205.45 191.96,-284.24 126.56,-122.72 295.27,-201.02 470.88,-217.56z"/>
    <path class="fil3" d="M1136.39 3785.21c98.68,-130.69 263.06,-211.15 427.34,-201.8 0.59,12.21 11.33,35.06 -6.99,39.5 -53.98,6.1 -109.32,7.97 -160.74,27.47 -142.42,46.88 -258.63,165.86 -301.38,309.56 -16.44,49.93 -19.5,102.63 -23.04,154.62 -13.5,5.43 -27.29,5.52 -40.38,-1.08 -4.83,-117.3 33.38,-235.48 105.19,-328.27z"/>
   </g>
   <g id="_23392e67ff">
    <path class="fil4" d="M1886.58 567.17c180.53,-79.67 391.39,-88.64 577.64,-23.04 22.16,8.37 46.29,9.94 68.35,18.22 15.07,11.82 30.14,23.93 47.28,32.79 175.01,92.58 311.22,254.6 374.45,442.02 51.02,148.72 54.57,312.51 14.18,464.19 -4.82,10.14 -2.85,26.88 -15.36,31.22l-9.06 4.62c47.67,-158.17 51.9,-330.73 -1.18,-488.21 -63.13,-193.53 -205.84,-359.28 -387.85,-450.59 -154.93,-79.09 -336.84,-102.53 -507.03,-67.36 -165.46,33.48 -318.41,123.7 -428.92,251.14 -111,126.27 -177.47,289.56 -189.49,456.99 -8.18,-0.19 -24.63,-0.39 -32.9,-0.59 27.19,-20.09 23.83,-55.94 28.76,-85.68 -338.9,62.54 -677.11,128.43 -1016.12,189.99 -91.79,3.74 -188.8,34.76 -244.44,112.27 -33.89,40.29 -39.11,93.57 -53,142.13 -4.03,3.04 -12.01,9.25 -16.05,12.31 -11.91,-45.11 1.58,-92.29 21.27,-133.06 46.3,-90.62 143.41,-149.12 243.67,-157.29 57.52,-4.14 113.75,-17.73 170.38,-28.07 299.71,-55.94 599.02,-113.36 898.82,-168.52 23.94,-95.24 62.35,-186.14 113.86,-269.76 86.66,-122.52 203.87,-225.93 342.74,-285.72z"/>
   </g>
   <g id="_23fdfcfcff">
    <path class="fil5" d="M2048 531.03c170.19,-35.17 352.1,-11.73 507.03,67.36 182.01,91.31 324.72,257.06 387.85,450.59 53.08,157.48 48.85,330.04 1.18,488.21 -51.31,135.33 -130.5,264.45 -247.21,352.7 1.78,-23.05 -5.42,-50.03 10.93,-69.14 20.19,-26.99 29.45,-60.38 51.81,-85.89 85.79,-104.98 138.77,-236.08 151.58,-370.91 0.09,-25.8 14.57,-47.17 24.91,-69.73 -8.47,-25.41 -25.21,-48.26 -25.11,-76.13 -13,-134.53 -66.28,-264.94 -151.68,-369.63 -19,-21.87 -29.84,-48.95 -39.19,-75.94 -50.04,-8.86 -84.21,-48.36 -125.09,-74.65 -71.6,-46.88 -151.67,-81.26 -235.29,-99.68 -51.9,-12.9 -109.52,-6.89 -155.31,-38.8 -21.38,13 -44.13,24.92 -69.63,25.8 -135.73,12.71 -267.6,65.8 -373.08,152.17 -20.88,18.71 -47.08,28.66 -73.78,35.56 -7.09,28.46 -19.3,55.45 -38.9,77.6 -85.29,105.1 -137.49,235.69 -150.49,370.23 -1.08,26.79 -17.82,49.04 -22.95,74.55 18.02,32.4 26.1,68.46 26.69,105.49 -21.56,-0.4 -43.04,-0.59 -64.61,-0.69 -0.79,-5.91 -2.56,-17.53 -3.44,-23.34 -0.79,-5.91 -2.56,-17.73 -3.45,-23.74 -2.07,-37.92 -3.05,-75.94 -1.18,-113.86 12.02,-167.43 78.49,-330.72 189.49,-456.99 110.51,-127.44 263.46,-217.66 428.92,-251.14z"/>
    <g>
     <path class="fil5" d="M4116.87 1221.44c182.51,-28.47 373.18,15.85 528.2,114.94 116.61,75.04 213.14,181.31 275.28,305.31 86.18,169.8 105.38,371.9 54.56,555.28 -38.9,142.42 -120.16,272.72 -229.97,371.31 -136.9,123.61 -319.01,196.09 -503.58,198.46 -182.69,4.53 -365.78,-59 -506.72,-175.22 -135.82,-110.69 -232.44,-268.58 -268.19,-440.15 -37.52,-175.8 -11.82,-364.6 73.08,-523.27 112.87,-217.47 334.47,-373.86 577.34,-406.66l0 0zm56.83 60.86c-147.43,10.15 -290.84,68.16 -403.41,163.89 -17.14,16.84 -41.66,19.11 -63.82,24.72 -5.52,21.96 -7.29,46.49 -24.33,63.33 -95.53,112.47 -153.45,255.48 -164.08,402.62 0.2,20.98 -16.06,35.76 -27.38,51.51 5.61,11.13 12.21,21.77 21.67,30.24 8.56,29.94 8.37,61.56 13.88,92.09 20.78,123.21 74.96,240.9 156.11,336.04 17.53,17.04 18.71,42.16 23.83,64.62 20.19,4.92 43.43,4.23 59.49,19.5 100.75,86.47 226.52,144.08 358.21,162.3 29.64,5.22 64.31,-0.98 86.96,23.15 24.03,24.13 42.75,-22.85 69.44,-18.12 146.75,-9.85 289.45,-68.26 401.64,-163.3 17.04,-17.82 42.45,-18.32 64.9,-24.03 4.14,-20.39 3.65,-43.53 19.5,-59.19 97.21,-113.56 157.49,-258.14 168.03,-407.25 -2.17,-22.95 23.63,-35.56 24.62,-56.73 -8.28,-16.75 -24.62,-30.24 -24.42,-50.14 -10.84,-149.11 -69.93,-294.48 -167.83,-407.55 -15.56,-15.85 -15.17,-39.09 -20,-59.28 -22.35,-5.22 -47.47,-6.4 -64.31,-24.04 -80.27,-68.84 -176.99,-117.69 -279.12,-144.38 -45.5,-12.32 -92.97,-13.01 -139.07,-21.38 -14.47,-5.41 -25.41,-18.12 -40.48,-21.37 -16.25,8.57 -30.43,23.25 -50.03,22.75z"/>
    </g>
    <g>
     <path class="fil5" d="M3328.76 3210.14c137.59,-81.26 300.69,-117.7 459.84,-103.62 161.04,12.51 315.86,79.78 439.07,183.49 101.74,89.63 182.41,204.27 226.82,332.7 59.79,169.89 58.51,360.86 -5.51,529.38 -60.57,163.99 -179.25,304.73 -328.66,395.04 -154.53,92.09 -340.97,128.53 -518.74,100.17 -142.72,-21.18 -277.25,-85.59 -387.07,-178.37 -86.57,-76.43 -157.78,-170.58 -203.87,-276.66 -77.22,-174.13 -86.57,-377.21 -25.8,-557.84 58.5,-176.69 183.28,-330.33 343.92,-424.29l0 0zm256.96 -27.19c-96.52,18.22 -188.8,57.62 -269.27,113.76 -36.35,24.52 -66.58,62.74 -113.95,63.62 -4.54,22.36 -7.49,46.39 -24.73,63.33 -90.8,107.26 -148.71,242.38 -162.11,382.44 -1.77,20.68 -4.82,41.85 -18.61,58.4 -22.26,23.93 18.81,43.83 15.95,69.73 11.92,147.64 69.63,291.63 166.55,404.1 17.23,16.85 17.92,41.76 23.83,63.72 48.36,-2.26 78.01,38.61 114.64,62.74 101.15,69.64 220.33,113.17 342.85,122.62 23.83,-1.38 40.57,16.45 60.08,26.9 20.58,-6.11 33.88,-28.87 57.52,-26.6 145.96,-10.63 287.68,-69.04 399.47,-163.49 16.74,-19.11 44.42,-14.87 64.21,-27.78 5.02,-19.2 4.43,-41.06 20,-55.74 96.42,-112.87 156.89,-256.27 167.33,-404.6 -0.59,-22.75 17.43,-38.51 27.97,-56.82 -10.74,-16.36 -27.78,-30.64 -27.38,-51.71 -10.83,-148.52 -69.24,-293.2 -166.45,-406.07 -16.54,-16.35 -17.63,-40.09 -22.75,-61.27 -19.7,-2.55 -42.35,-0.39 -56.93,-16.64 -108.93,-99.87 -253.31,-158.07 -399.96,-170.88 -24.33,0.1 -42.25,-17.53 -63.92,-25.21 -38.31,31.22 -88.84,25.61 -134.34,35.45z"/>
    </g>
    <g>
     <path class="fil5" d="M3266.41 3353.93c109.43,-94.94 249.48,-154.43 393.86,-166.84 21.18,-3.64 40.39,6.89 60.08,12.61 19.41,-4.04 37.73,-15.17 58.21,-13 147.84,11.23 290.05,73.47 402.33,169.6 11.33,11.22 13.1,28.16 18.82,42.54 19.5,8.08 40.96,14.78 54.16,32.7 92.98,111.49 151.87,251.94 161.43,397.11 2.95,18.42 -7.39,34.37 -15.07,50.13 7.29,18.32 18.41,36.64 14.97,57.42 -11.53,146.36 -71.11,288.67 -167.73,399.18 -11.33,13.99 -29.64,17.63 -45.31,24.53 -7.77,17.52 -12.8,37.82 -29.15,49.83 -112.47,95.73 -255.77,155.22 -403.41,164.18 -17.24,0.79 -32.3,-9.35 -48.85,-12.51 -16.94,4.43 -32.8,14.98 -51.02,12.41 -147.24,-10.63 -290.54,-70.03 -402.13,-166.64 -15.17,-12.22 -17.63,-32.9 -29.25,-47.47 -17.14,-9.16 -37.03,-14.97 -48.85,-31.62 -90.32,-107.35 -147.93,-242.28 -160.44,-382.24 -4.63,-23.63 7.78,-45.3 10.53,-68.15 -4.33,-19.7 -14.38,-38.71 -10.83,-59.39 11.92,-142.81 70.72,-280.89 163.69,-389.72 11.72,-16.35 31.71,-21.57 49.54,-28.66 6.2,-16.25 9.66,-34.97 24.42,-46l0 0zm388.74 -81.25c-223.47,22.06 -426.46,178.56 -504.55,389.13 -64.61,165.17 -51.02,358.4 35.05,513.33 70.92,129.12 189.79,231.45 328.76,280.89 141.23,50.92 301.48,47.57 440.25,-9.85 138.18,-56.73 253.71,-165.95 318.32,-300.59 111.39,-225.74 64.41,-519.34 -117.4,-694.74 -31.13,-24.62 -60.77,-51.02 -91.2,-76.33 -118.19,-81.65 -266.61,-117.5 -409.23,-101.84z"/>
    </g>
    <g>
     <path class="fil5" d="M1096.4 3568.54c110.51,-94.75 251.83,-152.86 396.91,-163.79 19.11,-3.44 35.65,7.49 51.61,16.06 18.42,-7.68 36.84,-19.11 57.62,-15.86 142.9,10.54 280,69.43 391.89,157.78 19.1,13.1 25.6,35.75 32.89,56.43 17.93,7.19 37.72,12.91 49.84,29.26 96.02,112.76 155.01,257.05 163.78,404.88 1.29,17.34 -12.7,31.23 -13.79,48.17 5.42,17.04 17.04,32.99 13.4,51.9 -11.42,146.85 -71.11,290.06 -168.32,400.75 -13.59,16.65 -42.15,15.37 -49.93,36.94 -14.28,39.49 -53.58,59.78 -85.39,83.52 -98.79,67.27 -215.2,108.04 -334.18,117.59 -20.58,2.76 -39.49,-6.79 -58.2,-13.19 -16.45,6.89 -33,16.24 -51.41,13.39 -147.44,-11.42 -290.84,-71.11 -402.24,-168.42 -13.1,-11.13 -17.13,-28.36 -23.34,-43.53 -17.43,-8.57 -37.13,-14.87 -49.64,-30.53 -95.43,-110.21 -153.54,-251.64 -164.67,-396.91 -1.38,-17.83 7.48,-33.98 11.62,-50.72 -1.67,-19.8 -13,-37.92 -11.62,-58.01 10.24,-143.11 67.96,-281.78 159.65,-391.8 13.29,-18.22 35.06,-25.61 54.86,-34.47 6.89,-17.82 12.8,-37.32 28.66,-49.44l0 0zm241.2 -44.52c-152.56,54.67 -280.9,173.15 -347.27,320.98 -64.52,139.66 -72.2,304.04 -22.85,449.6 56.33,168.42 189.98,309.46 355.93,373.18 112.88,45.01 239.24,53.38 357.62,27.38 139.95,-30.63 267.5,-113.56 353.48,-228.1 91.3,-119.17 135.03,-273.11 121.24,-422.52 -12.11,-148.62 -82.24,-290.74 -190.87,-392.48 -10.05,-7.88 -20,-15.76 -29.85,-23.64 -160.43,-140.15 -398.88,-178.17 -597.43,-104.4z"/>
    </g>
   </g>
   <g id="_23392b71ff">
    <g>
     <path class="fil6" d="M2134.78 585.19c25.5,-0.88 48.25,-12.8 69.63,-25.8 45.79,31.91 103.41,25.9 155.31,38.8 83.62,18.42 163.69,52.8 235.29,99.68 40.88,26.29 75.05,65.79 125.09,74.65 9.35,26.99 20.19,54.07 39.19,75.94 85.4,104.69 138.68,235.1 151.68,369.63 -0.1,27.87 16.64,50.72 25.11,76.13 -10.34,22.56 -24.82,43.93 -24.91,69.73 -12.81,134.83 -65.79,265.93 -151.58,370.91 -22.36,25.51 -31.62,58.9 -51.81,85.89 -16.35,19.11 -9.15,46.09 -10.93,69.14 116.71,-88.25 195.9,-217.37 247.21,-352.7l9.06 -4.62c-3.84,29.64 -13.19,58.5 -12.11,88.64 0.39,240.01 0.49,480.03 0.1,720.06 0,85.78 -47.97,167.82 -119.47,214.21 -36.84,26.69 -80.47,40.97 -124,52.59 -1.28,91.5 1.38,183.09 -0.89,274.49 -3.64,95.24 -64.6,185.16 -151.47,224.06 -52.7,19.6 -107.95,36.64 -164.48,38.71 -542.78,0.69 -1085.55,-0.99 -1628.33,0.79 12.71,47.67 35.76,91.4 51.41,137.98 -8.86,2.66 -17.63,5.52 -26.39,8.28 -22.06,-48.36 -38.22,-99.08 -60.47,-147.25 -118.78,-0.1 -237.47,1.09 -356.14,-0.29 -132.57,-4.24 -250.66,-119.17 -255.58,-252.23 0.39,-46.79 -14.97,-91.89 -14.87,-138.58 -0.1,-367.66 0.39,-735.42 -0.3,-1103.08 2.56,-13.3 -5.22,-31.03 5.71,-41.36 4.04,-3.06 12.02,-9.27 16.05,-12.31 26.7,-19.61 39.11,-51.52 59.79,-76.53 37.62,-52.2 90.51,-95.44 153.84,-111.3 83.03,-20.68 169.6,1.08 253.02,-15.85 72.39,-14.19 144.58,-29.35 217.27,-41.96 -13.89,11.72 -27.18,24.04 -41.07,35.65 -13.1,4.63 -26.2,9.16 -39.3,13.89 210.18,-0.29 420.45,-0.88 630.63,0.4 30.92,-0.79 69.83,7.18 88.15,-24.82 0.88,5.81 2.65,17.43 3.44,23.34 21.57,0.1 43.05,0.29 64.61,0.69 -0.59,-37.03 -8.67,-73.09 -26.69,-105.49 5.13,-25.51 21.87,-47.76 22.95,-74.55 13,-134.54 65.2,-265.13 150.49,-370.23 19.6,-22.15 31.81,-49.14 38.9,-77.6 26.7,-6.9 52.9,-16.85 73.78,-35.56 105.48,-86.37 237.35,-139.46 373.08,-152.17l0 0zm-384.71 180.34c-14.47,12.61 -17.73,32.8 -28.66,47.96 -17.04,9.36 -37.42,14.28 -49.15,30.93 -90.5,107.65 -147.53,243.27 -160.04,383.42 -6.69,28.66 18.91,55.35 6.11,83.42 -11.43,28.76 -4.34,59.59 -1.09,89.13 28.07,0 56.14,0.1 84.11,0.2 -31.32,-190.28 26.89,-394.65 163.3,-532.63 103.91,-108.63 249.08,-176.79 399.27,-185.55 160.05,-11.92 323.84,43.23 443.8,149.89 127.34,110.61 206.04,275.97 208.21,444.88 3.64,122.13 -30.74,245.54 -98.3,347.47 -34.07,40.58 -17.62,97.11 -18.02,145.47 13.3,-8.07 26.69,-16.65 36.54,-29.05 95.04,-112.67 154.33,-256.17 162.7,-403.61 2.37,-19.6 -20.87,-35.95 -10.63,-55.16 5.02,-14.18 13,-28.26 10.54,-43.93 -10.74,-144.77 -68.75,-285.22 -162.51,-396.02 -11.92,-16.06 -32.11,-20.78 -48.46,-30.63 -12.8,-14.57 -14.57,-36.64 -30.82,-48.75 -109.82,-94.75 -250.17,-152.76 -394.55,-164.97 -20.88,-3.94 -38.51,9.26 -57.82,14.28 -17.14,-4.63 -32.89,-16.64 -51.51,-14.38 -147.64,10.64 -291.43,70.22 -403.02,167.63l0 0zm-37.03 188.7c-89.23,128.14 -123.11,292.03 -95.34,445.38 59.69,1.47 119.37,0.39 179.06,0.59 44.02,1.18 88.24,2.65 132.17,-1.98 20.59,-7.19 42.35,-5.81 62.54,2.37l-4.73 -5.32c14.29,3.45 28.96,4.53 44.03,3.25 -18.52,-45.01 -70.72,-70.52 -75.54,-121.24 8.96,-3.45 18.31,-5.71 27.87,-6.7 43.83,35.96 69.53,89.92 114.44,124.4 21.57,14.27 27.68,40.18 36.55,62.93 -587.79,0.79 -1175.48,0 -1763.17,0.5 -123.7,-0.89 -235.68,107.74 -236.96,231.74 -0.99,188.02 -1.18,376.23 0.1,564.24 43.53,1.18 87.16,1.18 130.69,0.1 1.09,-106.07 0.2,-212.14 0.49,-318.21 -28.16,-13.79 -61.25,-29.55 -68.15,-63.63 -16.25,-51.12 32.7,-106.37 85.29,-97.9 38.81,2.07 60.48,38.02 72.89,70.62 98.38,0 196.78,1.58 295.07,-0.99 8.86,-22.75 18.42,-47.96 41.46,-60.08 43.93,-27.37 109.62,2.27 116.32,54.27 10.04,48.16 -32.99,98.1 -82.54,92.09 -39.49,-0.3 -65.09,-34.86 -75.15,-69.44 -98.48,-2.75 -197.07,-0.59 -295.56,-1.18 -10.44,37.33 -39.69,62.94 -74.95,76.63 0.59,105.87 -0.79,211.75 0.89,317.63 72.98,1.67 146.06,0.39 219.13,0.78 14.09,-30.33 32.9,-65.49 69.93,-70.02 53.09,-11.72 105.68,43.53 90.02,96.02 -6.1,34.77 -39.3,51.71 -68.64,63.92 -0.59,144.78 -0.2,289.56 -0.2,434.45 38.11,9.94 63.62,39.68 76.23,75.93 479.05,-2.47 958.2,-2.96 1437.25,-0.3 -2.06,10.93 -8.56,15.56 -19.69,13.7 -472.75,-0.6 -945.5,0.78 -1418.25,-0.89 -15.66,29.54 -34.47,65 -70.91,71.01 -48.85,9.25 -97.61,-36.64 -89.83,-86.18 1.78,-38.71 36.25,-62.54 70.23,-72.29 0.69,-145.47 0.59,-290.84 0,-436.31 -15.66,-7.39 -32.6,-13.1 -46,-24.43 -14.77,-13.69 -17.53,-36.24 -32.8,-48.94 -72.28,-2.27 -144.68,-0.59 -216.97,-0.59 -0.39,32.89 -2.26,65.88 1.09,98.68 12.11,25.12 44.02,39.3 45.5,70.22 9.36,48.17 -35.06,96.72 -84.11,90.12 -38.71,-0.59 -63.53,-34.76 -73.48,-68.65 -11.62,-0.98 -23.33,-1.87 -34.96,-2.66 -2.46,131.59 -0.19,263.17 -1.18,394.85 -0.98,42.84 4.13,86.77 23.73,125.57 39.4,84.31 130.21,140.64 223.38,137.99 666.87,-0.2 1333.75,0.1 2000.62,-0.2 125.47,2.16 239.32,-107.94 239.92,-233.72 0.88,-393.95 0.19,-787.91 0.39,-1181.77 3.25,-122.22 -100.36,-234.21 -221.99,-241.4 -76.23,-2.26 -152.56,-0.19 -228.8,-1.77 11.82,-21.28 22.36,-52.89 51.81,-52.79 65.89,-4.24 132.37,-5.62 198.07,1.97 14.67,-8.18 29.24,-16.55 43.72,-25.21 4.43,6.69 8.97,13.49 13.5,20.19 42.05,11.42 82.53,28.26 119.56,51.41 28.76,28.66 53.77,60.47 77.42,93.27 88.34,-186.25 71.2,-417.5 -44.42,-588.28 -91.8,-137.99 -242.09,-238.05 -406.86,-261.49 -199.64,-10.05 -397.9,93.47 -510.18,257.74l0 0zm1137.46 834.51c0.69,177.48 0.19,355.05 0.39,532.53 0.79,85.49 -44.32,169.4 -115.14,216.87 -15.07,11.23 -34.96,19.01 -41.55,38.22 114.04,-16.75 218.54,-115.83 217.75,-235.19 -0.59,-228.5 1.18,-457.1 -0.89,-685.49 -23.93,42.05 -66.57,80.56 -60.56,133.06l0 0zm-149.41 123.2c-5.81,30.93 -2.46,62.54 -2.86,93.87 0.3,173.93 -0.29,347.87 0.2,521.79 73.57,-40.57 125.67,-120.94 122.72,-206.13 -1.09,-175.02 1.47,-350.13 -0.99,-525.15 -40.97,37.23 -79.58,77.02 -119.07,115.62l0 0zm-2453.77 -99.76c-19.2,12.21 -27.38,38.11 -17.92,58.99 14.96,41.66 90.31,32.8 90.6,-13.98 6.6,-41.07 -40.18,-58.01 -72.68,-45.01l0 0zm454.63 2.66c-20.39,12.5 -15.17,40.28 -13.3,60.37 18.22,39.6 88.15,28.27 89.23,-17.23 6.89,-40.68 -44.71,-67.28 -75.93,-43.14l0 0zm-129.91 401.83c-41.47,7.49 -46.29,73.09 -8.67,88.84 23.35,12.31 54.47,-0.69 64.02,-24.82 16.74,-33.19 -19.6,-76.13 -55.35,-64.02l0 0zm-438.37 53.78c-0.79,57.32 -0.79,114.74 0,172.26 7.97,0.49 24.02,1.67 32,2.26 10.34,-19.79 18.52,-42.15 36.74,-56.24 17.63,-13.69 41.07,-14.47 62.14,-18.61 1.68,-33.39 1.68,-66.87 0.4,-100.26 -43.73,-0.89 -87.56,-0.49 -131.28,0.59l0 0zm103.8 135.13c-33.29,6.4 -43.14,49.24 -25.8,74.65 19.69,28.07 70.81,22.36 81.45,-11.13 16.84,-33.58 -20.19,-75.74 -55.65,-63.52l0 0zm325.6 412.77c-34.66,14.18 -33.38,74.26 2.27,86.57 24.23,9.95 59.98,-1.68 64.32,-30.04 14.87,-37.23 -32.5,-75.44 -66.59,-56.53z"/>
    </g>
   </g>
   <g id="_23382e66ff">
    <path class="fil7" d="M2713.5 563.43c43.83,0.59 87.46,6.4 130.79,13.4 -0.49,7.09 -1.38,21.17 -1.87,28.26 -41.66,-5.12 -83.32,-10.64 -125.28,-13.2 -0.89,-7.09 -2.76,-21.37 -3.64,-28.46z"/>
   </g>
   <g id="_23382f65ff">
    <path class="fil8" d="M2885.56 588.35c58.99,-1.48 115.33,19.99 172.65,31.32 -0.4,6.69 -1.18,20.09 -1.48,26.79 -57.51,-8.28 -113.46,-24.92 -170.88,-33.78 0,-6.11 -0.19,-18.23 -0.29,-24.33z"/>
    <path class="fil8" d="M3187.53 659.46c12.11,3.84 24.22,7.68 36.53,11.33 0,6.1 0.1,18.51 0.1,24.62 -16.93,4.23 -32.6,-4.04 -48.05,-9.76 3.83,-8.76 7.58,-17.53 11.42,-26.19z"/>
    <path class="fil8" d="M3790.38 999.84c12.41,7.68 24.72,15.55 37.03,23.53 -3.84,8.58 -7.58,17.14 -11.32,25.71 -12.41,-6.8 -24.72,-13.99 -36.93,-20.98 3.63,-9.45 7.38,-18.91 11.22,-28.26z"/>
    <path class="fil8" d="M1239.31 1095.86c-19.21,-20.98 11.13,-34.86 25.11,-46.39 3.64,5.42 10.93,16.36 14.58,21.77 -12.02,10.14 -20.78,31.13 -39.69,24.62z"/>
    <path class="fil0" d="M378.41 1519.17c46.49,-1.67 92.97,-1.48 139.46,0.2 -0.1,5.31 -0.3,16.05 -0.4,21.37 -39.09,-0.19 -78.09,-0.29 -117.1,0.5l0 12.99c33.09,0.6 66.19,0.4 99.18,1.77 -1.28,3.95 -3.94,11.83 -5.22,15.87 -29.54,9.25 -62.14,2.46 -92.87,4.03 -0.3,11.03 -0.49,22.07 -0.79,33.09 39,0.1 78,0 117,0.69 0.2,5.32 0.59,15.86 0.79,21.18 -46.68,1.37 -93.37,1.18 -140.15,0.39 -0.99,-37.42 -0.89,-74.75 0.1,-112.08z"/>
    <path class="fil0" d="M1093.25 1522.62c5.12,-0.79 15.36,-2.56 20.48,-3.45 2.76,29.65 1.48,59.39 0.99,89.03 26.19,1.39 52.98,-1.37 78.69,5.22 1.18,4.05 3.55,12.12 4.82,16.16 -35.15,3.05 -70.52,2.56 -105.77,1.18 0.49,-36.05 -1.28,-72.09 0.79,-108.14z"/>
    <path class="fil0" d="M525.35 1582.3c4.73,-30.13 40.78,-13.2 60.77,-11.62 -12.7,20.49 -41.07,8.77 -60.77,11.62z"/>
    <g>
     <path class="fil8" d="M1310.42 1773.86c109.71,-15.66 224.94,8.28 318.9,67.17 114.05,69.63 196,189.89 218.55,321.67 22.85,122.92 -5.02,254.5 -76.92,356.93 -91.1,133.65 -253.51,215.2 -415.33,205.64 -199.14,-5.12 -382.33,-150.68 -437.1,-341.36 -34.56,-117.89 -23.24,-249.48 34.87,-358.11 69.63,-134.83 206.63,-231.84 357.03,-251.94l0 0zm-20.39 18.22c-138.97,25.91 -262.67,119.77 -326.5,245.74 -102.23,192.84 -42.54,452.75 134.84,580.39 91.3,68.85 208.5,102.53 322.35,91.31 128.53,-11.63 250.46,-80.08 327.38,-183.59 78.1,-102.03 109.13,-237.65 85,-363.72 -22.75,-125.57 -100.56,-239.63 -208.9,-307 -97.89,-62.93 -220.12,-84.79 -334.17,-63.13z"/>
    </g>
    <g>
     <path class="fil8" d="M1369.31 1813.07c37.62,0.98 75.15,11.02 112.28,17.82 77.51,16.74 143.2,63.03 204.96,110.41 28.26,41.16 60.27,80.36 81.15,126.16 27.77,57.42 35.36,121.64 46.49,183.49 -12.02,52.1 -16.64,106.17 -37.63,155.81 -21.17,56.04 -58.5,103.61 -93.85,151.08 -59.1,43.14 -120.26,87.27 -192.75,104.5 -53.67,11.03 -109.13,28.07 -163.69,12.31 -98.49,-9.75 -185.36,-61.85 -260.5,-122.42 -29.94,-46.29 -66.38,-89.04 -86.08,-141.14 -22.46,-51.31 -27.28,-107.55 -38.22,-161.82 10.54,-58.3 16.75,-118.67 41.66,-173.24 21.38,-50.53 56.24,-93.66 87.46,-138.08 44.03,-28.95 84.8,-63.53 133.75,-84.11 51.91,-24.43 109.33,-30.44 164.97,-40.77l0 0zm-79.18 28.56c-108.34,20.68 -199.74,92.48 -261.98,181.12 -103.82,157.68 -82.93,389.82 58.5,518.35 147.54,160.34 431.58,161.52 579.51,1.28 130.5,-116.62 161.42,-323.14 83.71,-477.68 -26.29,-58.6 -72.68,-104 -119.76,-146.06 -94.35,-75.74 -222.59,-99.57 -339.98,-77.01z"/>
    </g>
    <g>
     <path class="fil8" d="M694.86 1857.58c-6.7,-27.78 22.95,-50.72 48.55,-40.09 30.24,6.6 26.2,43.53 17.14,65.6 -23.83,10.24 -66.68,9.85 -65.69,-25.51l0 0zm24.62 -25.9c-26.2,13.89 -5.12,55.54 21.86,42.74 27.78,-13.59 5.71,-57.91 -21.86,-42.74z"/>
    </g>
    <path class="fil8" d="M1136.19 2061.55c57.71,-76.13 152.95,-121.63 248.59,-117.99l0.49 11.33c-68.06,4.43 -137.3,22.45 -190.38,67.27 -69.24,54.46 -108.05,141.73 -108.14,229.28 -3.94,-0.39 -11.82,-1.08 -15.77,-1.48 3.26,-67.36 22.76,-135.13 65.21,-188.41z"/>
    <path class="fil8" d="M412.78 2006.59c62.84,-1.37 125.87,-3.14 188.61,1.09 -7.09,17.33 -28.85,10.64 -43.24,12.7 -42.64,0 -85.39,-0.2 -128.04,-0.89 -4.13,34.09 -2.95,68.36 -2.26,102.63 -3.84,0 -11.53,0.1 -15.36,0.1 -0.2,-38.51 -0.3,-77.12 0.29,-115.63z"/>
    <path class="fil8" d="M1089.01 2327.67c19.01,20.59 26.89,48.06 41.47,71.41 15.65,26.29 38.9,47.17 52.98,74.55 -52.49,-27.38 -86.97,-88.24 -94.45,-145.96z"/>
    <g>
     <path class="fil8" d="M361.96 2391.1c58.01,-0.99 116.12,-1.28 174.13,0.2 1.08,127.84 0.39,255.77 0.3,383.61 -58.31,2.46 -116.81,1.58 -175.12,0.79 -0.29,-128.23 -1.97,-256.46 0.69,-384.6l0 0zm13.2 13.69c-0.89,118.88 -0.2,237.75 -0.49,356.63 48.55,0.88 97.21,0.49 145.86,0.49 1.28,-119.07 4.43,-238.64 -1.68,-357.61 -47.86,1.28 -95.73,0.88 -143.69,0.49z"/>
    </g>
    <g>
     <path class="fil8" d="M226.83 2420.74c19.8,-15.06 53.09,-5.02 58.9,19.8 8.87,25.51 -15.27,53.38 -41.86,47.96 -32.01,-2.46 -43.04,-50.33 -17.04,-67.76l0 0zm7.49 7.49c-12.9,17.72 -6.4,36.14 8.86,49.54 8.87,-3.64 17.73,-7.39 26.69,-11.03 0.99,-6.8 2.96,-20.49 3.85,-27.38 -11.92,-7.49 -25.71,-9.65 -39.4,-11.13z"/>
    </g>
   </g>
   <g id="_23fdfdfcff">
    <path class="fil9" d="M1750.07 765.53c111.59,-97.41 255.38,-156.99 403.02,-167.63 18.62,-2.26 34.37,9.75 51.51,14.38 19.31,-5.02 36.94,-18.22 57.82,-14.28 144.38,12.21 284.73,70.22 394.55,164.97 16.25,12.11 18.02,34.18 30.82,48.75 16.35,9.85 36.54,14.57 48.46,30.63 93.76,110.8 151.77,251.25 162.51,396.02 2.46,15.67 -5.52,29.75 -10.54,43.93 -10.24,19.21 13,35.56 10.63,55.16 -8.37,147.44 -67.66,290.94 -162.7,403.61 -9.85,12.4 -23.24,20.98 -36.54,29.05 0.4,-48.36 -16.05,-104.89 18.02,-145.47 67.56,-101.93 101.94,-225.34 98.3,-347.47 -2.17,-168.91 -80.87,-334.27 -208.21,-444.88 -119.96,-106.66 -283.75,-161.81 -443.8,-149.89 -150.19,8.76 -295.36,76.92 -399.27,185.55 -136.41,137.98 -194.62,342.35 -163.3,532.63 -27.97,-0.1 -56.04,-0.2 -84.11,-0.2 -3.25,-29.54 -10.34,-60.37 1.09,-89.13 12.8,-28.07 -12.8,-54.76 -6.11,-83.42 12.51,-140.15 69.54,-275.77 160.04,-383.42 11.73,-16.65 32.11,-21.57 49.15,-30.93 10.93,-15.16 14.19,-35.35 28.66,-47.96z"/>
    <g>
     <path class="fil9" d="M3775.51 1460.86c110.41,-94.94 251.74,-153.15 396.91,-164.18 20.59,-3.35 37.23,12.71 57.03,14.29 16.84,-6.31 32.4,-20.1 51.81,-15.96 118.87,12.21 235.97,51.41 334.76,119.37 36.24,25.61 79.18,50.23 90.41,96.61 17.83,7.49 37.72,13.2 50.13,29.26 96.23,112.77 155.12,257.35 163.69,405.48 1.38,17.23 -13.89,31.02 -13.3,47.96 5.13,17.14 16.55,33.09 13.01,51.9 -11.62,144.69 -69.64,285.33 -163.89,395.64 -13.59,20.29 -45.21,19.01 -54.56,42.15 -18.72,45.8 -66.38,68.16 -104.4,95.44 -94.55,59.78 -203.78,96.72 -315.36,105.09 -20.69,3.25 -39.6,-6.7 -58.31,-13.2 -13.69,5.12 -26.69,14.97 -41.86,13.79 -148.22,-8.57 -292.81,-67.47 -405.48,-163.79 -20.39,-13.39 -19.3,-44.91 -42.05,-54.46 -43.64,-17.33 -65.7,-61.85 -91.7,-97.8 -62.54,-96.33 -101.35,-208.21 -109.52,-322.86 -1.57,-17.82 6.8,-34.07 11.03,-50.91 0.4,-20 -13.79,-37.92 -11.12,-58.4 10.53,-145.28 69.43,-286.32 163.98,-396.92 12.31,-15.76 32.4,-20.88 50.03,-28.37 7.19,-17.92 12.71,-37.91 28.76,-50.13l0 0zm341.56 -71.6c-121.53,21.57 -235.98,81.36 -322.85,169.21 -115.42,113.75 -181.71,275.57 -179.35,437.69 0.59,151.77 60.47,302.36 164.87,412.47 94.65,102.03 225.25,169.99 363.33,188.11 120.65,16.26 246.52,-3.15 355.35,-58.2 141.33,-69.44 252.93,-196.19 304.83,-344.71 46.38,-132.57 46.09,-281.39 -2.76,-413.17 -50.23,-138.57 -152.86,-257.26 -282.67,-327.08 -120.94,-66.58 -265.03,-88.84 -400.75,-64.32z"/>
    </g>
   </g>
   <g id="_23fdfdfdff">
    <g>
     <path class="fil10" d="M1713.04 954.23c112.28,-164.27 310.54,-267.79 510.18,-257.74 164.77,23.44 315.06,123.5 406.86,261.49 115.62,170.78 132.76,402.03 44.42,588.28 -23.65,-32.8 -48.66,-64.61 -77.42,-93.27 32.9,-88.55 42.05,-187.13 13.89,-278.24 -47.48,-173.63 -217.96,-306.79 -398.98,-303.64 -4.24,0 -12.81,0 -17.04,0 -111.39,-0.3 -221.11,49.15 -296.75,130.5 -99.67,103.41 -140.84,260.01 -101.44,398.59 -59.69,-0.2 -119.37,0.88 -179.06,-0.59 -27.77,-153.35 6.11,-317.24 95.34,-445.38l0 0zm138.28 -38.9c-106.47,99.48 -168.91,246.12 -161.52,392.18 13.2,5.32 26.89,5.82 40.08,-0.09 3.06,-57.52 8.17,-115.63 28.07,-170.1 45.7,-134.43 155.22,-244.93 289.36,-291.62 51.41,-19.8 106.57,-24.13 160.84,-28.66 22.94,0.1 16.93,-25.41 14.48,-39.99 -135.73,-8.66 -272.92,45.31 -371.31,138.28z"/>
    </g>
    <path class="fil10" d="M409.33 1342.88c339.01,-61.56 677.22,-127.45 1016.12,-189.99 -4.93,29.74 -1.57,65.59 -28.76,85.68 -29.94,-0.29 -59.29,6.31 -88.54,12.12 -170.68,34.17 -341.95,65.69 -512.34,100.95 -72.69,12.61 -144.88,27.77 -217.27,41.96 -83.42,16.93 -169.99,-4.83 -253.02,15.85 -63.33,15.86 -116.22,59.1 -153.84,111.3 -20.68,25.01 -33.09,56.92 -59.79,76.53 13.89,-48.56 19.11,-101.84 53,-142.13 55.64,-77.51 152.65,-108.53 244.44,-112.27z"/>
    <g>
     <path class="fil10" d="M4137.46 1400.89c111.98,-22.86 225.93,15.06 321.66,72.09 151.38,89.92 259.23,249.37 285.53,423.61 25.41,157.48 -15.07,324.52 -110.81,452.16 -79.77,109.42 -197.96,189.69 -328.75,224.75 -93.47,28.37 -193.93,9.06 -284.04,-22.16 -170,-61.16 -307.99,-204.27 -362.55,-376.42 -50.13,-151.97 -34.67,-323.94 41.07,-464.78 86.87,-164.18 253.71,-283.16 437.89,-309.25l0 0zm9.75 79.08c-200.23,28.07 -373.37,185.95 -421.24,382.14 -9.75,45.7 -22.16,93.96 -12.61,140.45 12.9,21.67 44.62,4.23 39.69,-18.52 2.07,-110.21 42.35,-219.73 115.53,-302.65 86.57,-101.84 218.06,-162.52 351.71,-164.09 23.24,4.93 39.19,-26.59 18.22,-40.08 -29.85,-7.69 -61.26,-0.99 -91.3,2.75l0 0zm57.32 100.85c-41.66,-7.67 -83.12,5.52 -122.03,19.21 -130.99,46.49 -232.73,164.08 -262.97,299.41 -41.56,176.98 47.58,381.55 215.1,457.78 -4.13,15.46 5.72,31.12 8.28,46.39 121.63,6.89 243.96,2.46 365.79,2.26 4.04,-13.49 4.73,-27.08 1.87,-40.87 37.42,-16.16 70.12,-42.15 97.9,-71.8 12.21,-4.14 21.57,-12.51 27.87,-25.12 105.09,-112.37 134.93,-286.31 78.2,-428.52 -48.26,-125.68 -161.82,-226.14 -294.28,-252.82 -12.71,-7.69 -34.58,-21.97 -44.82,-3.85 -12.9,-4.52 -25.8,-8.86 -38.7,-13.29 -11.33,2.46 -22.07,6.2 -32.21,11.22l0 0zm-466.84 543.77c-2.36,15.16 -3.25,31.12 3.74,45.4 29.45,75.74 74.46,146.85 135.92,200.62 13.98,16.94 43.33,2.86 37.72,-18.81 -18.62,-26.79 -45.21,-47.08 -64.22,-73.67 -37.23,-46.09 -59.19,-101.44 -81.84,-155.52 -7.88,0.5 -23.54,1.49 -31.32,1.98z"/>
    </g>
    <g>
     <path class="fil10" d="M3625.02 3291.69c129.71,-28.27 261.49,22.55 367.06,95.63 97.22,64.32 168.52,162.51 212.55,269.37 61.75,153.84 56.53,333.48 -15.96,482.8 -83.91,179.64 -262.27,312.3 -459.15,337.52 -162.71,3.74 -325.22,-64.61 -437.3,-182.31 -100.46,-103.41 -161.52,-244.35 -166.64,-388.54 -6.5,-139.36 38.01,-280.6 124.09,-390.41 91.01,-118.49 227.81,-200.53 375.35,-224.06l0 0zm-258.04 212.93c-105.39,100.07 -170.69,247.01 -158.77,393.27 12.31,1.28 24.72,1.38 37.13,0.2 4.83,-49.74 7.09,-100.17 21.67,-148.33 41.46,-149.11 161.62,-272.91 309.06,-319.79 53.08,-18.23 109.42,-20.69 164.77,-26.59 -0.19,-12.32 -0.59,-24.53 -1.18,-36.75 -136.41,-11.32 -273.8,45.31 -372.68,137.99l0 0zm263.65 -31.91c-0.2,5.13 -0.59,15.46 -0.69,20.58 -86.27,22.17 -166.45,71.01 -221.11,141.83 -72.98,91.69 -101.74,217.27 -75.14,331.42 22.45,104.39 89.33,198.65 181.02,253.61 97.6,60.77 221.9,72.38 331.02,38.41 51.61,-19.3 106.66,-42.75 140.54,-88.24 35.56,-8.68 66.98,-38.61 69.73,-76.34 108.34,-159.55 73.77,-402.03 -83.02,-517.27l1.58 -5.71c-53.88,-37.62 -113.17,-72.49 -179.85,-79.18 -0.1,-4.63 -0.29,-13.98 -0.39,-18.62 -15.16,-6.79 -39.29,-10.93 -42.05,11.92 -27.09,-1.08 -54.17,-1.08 -81.26,-0.3 -0.1,-23.05 -26.2,-18.12 -40.38,-12.11l0 0zm-400.76 561.59c24.04,85.49 75.05,163.29 139.96,223.47 14.08,18.91 45.8,8.67 41.17,-16.35 -20.58,-27.38 -47.18,-49.54 -67.27,-77.31 -35.85,-45.21 -58.21,-98.89 -78.69,-152.37 -14.87,-0.98 -40.19,1.77 -35.17,22.56z"/>
    </g>
    <g>
     <path class="fil10" d="M1115.8 3686.14c114.05,-120.55 281.49,-191.27 447.74,-182.9 120.15,15.95 232.33,75.25 321.27,156.5 14.58,14.19 28.76,28.86 42.15,44.32 105.88,124.98 160.44,292.61 142.42,456.01 -17.93,191.26 -134.64,368.94 -301.68,463.19 -83.42,45.5 -178.26,81.06 -274.68,69.74 -158.77,-13.89 -310.25,-94.65 -409.82,-219.14 -87.06,-105.98 -135.03,-243.18 -132.96,-380.27 0.19,-150.4 60.97,-299.51 165.56,-407.45l0 0zm20.59 99.07c-71.81,92.79 -110.02,210.97 -105.19,328.27 13.09,6.6 26.88,6.51 40.38,1.08 3.54,-51.99 6.6,-104.69 23.04,-154.62 42.75,-143.7 158.96,-262.68 301.38,-309.56 51.42,-19.5 106.76,-21.37 160.74,-27.47 18.32,-4.44 7.58,-27.29 6.99,-39.5 -164.28,-9.35 -328.66,71.11 -427.34,201.8l0 0zm389.92 -79.08c-170.99,4.14 -326.4,136.21 -362.84,302.56 -30.24,125.67 6.21,265.43 96.03,358.6 67.86,74.46 165.85,119.37 266.21,124.49 14.48,0.1 28.86,0 43.34,-0.2 100.66,-5.21 198.46,-51.11 267,-125.07 58.61,-63.53 96.03,-146.85 103.02,-233.13 10.45,-111.89 -29.94,-228.5 -109.71,-307.98 -69.44,-70.72 -164.87,-117.89 -264.84,-120.45 -12.81,-0.3 -25.51,0.1 -38.21,1.18l0 0zm-470.29 551.84c26.19,84.31 76.23,161.62 141.62,220.81 13.69,16.94 44.42,2.17 37.53,-19.31 -19.8,-28.45 -48.16,-50.03 -67.76,-78.78 -35.75,-45.11 -56.04,-99.19 -78.5,-151.38 -16.84,-0.79 -41.26,7.09 -32.89,28.66z"/>
    </g>
   </g>
   <g id="_23382d65ff">
    <path class="fil11" d="M3385 743.27c38.31,12.11 73.37,32.21 108.63,51.21 15.46,5.13 4.04,22.95 0.59,32.41 -38.51,-19.8 -78.39,-37.13 -114.74,-60.57 1.38,-5.81 4.14,-17.34 5.52,-23.05z"/>
    <path class="fil0" d="M1357.79 1517.79c44.71,0.79 89.43,0.69 134.14,-0.2 0.59,5.52 1.97,16.75 2.56,22.36 -19.3,0.69 -38.61,1.18 -57.81,1.87 -0.2,29.95 -0.39,59.78 -0.79,89.73 -5.32,0.1 -16.06,0.19 -21.37,0.29 -0.2,-30.14 -0.3,-60.17 -0.5,-90.31 -19.59,-0.59 -39.29,-1.18 -58.89,-1.87 0.69,-5.42 1.97,-16.35 2.66,-21.87z"/>
    <path class="fil0" d="M1208.18 1519.17c46.98,-1.38 94.06,-1.58 141.04,0.1 -1.08,5.12 -3.35,15.37 -4.43,20.49 -37.63,3.74 -76.14,-3.84 -113.26,4.03l-5.32 9.36c32.99,2.46 66.18,1.87 99.27,1.97 0.3,5.12 0.89,15.36 1.19,20.48 -32.11,0.59 -64.32,0.59 -96.43,0.69 -0.1,10.74 -0.19,21.58 -0.29,32.41 39.1,0.69 78.1,0.19 117.2,0.89 0.1,5.41 0.2,16.24 0.3,21.76 -46.39,0.59 -92.78,0.79 -139.17,0 -0.68,-37.43 -0.59,-74.85 -0.1,-112.18z"/>
    <path class="fil11" d="M803.39 3325.96c4.83,-0.88 14.38,-2.66 19.21,-3.55 21.07,36.94 38.51,75.84 58.7,113.37 -6.6,3.15 -19.7,9.35 -26.3,12.5 -18.71,-37.72 -41.56,-73.66 -55.94,-113.36l4.33 -8.96z"/>
   </g>
   <g id="_23392b6eff">
    <path class="fil12" d="M1851.32 915.33c98.39,-92.97 235.58,-146.94 371.31,-138.28 2.45,14.58 8.46,40.09 -14.48,39.99 -54.27,4.53 -109.43,8.86 -160.84,28.66 -134.14,46.69 -243.66,157.19 -289.36,291.62 -19.9,54.47 -25.01,112.58 -28.07,170.1 -13.19,5.91 -26.88,5.41 -40.08,0.09 -7.39,-146.06 55.05,-292.7 161.52,-392.18z"/>
    <path class="fil12" d="M4147.21 1479.97c30.04,-3.74 61.45,-10.44 91.3,-2.75 20.97,13.49 5.02,45.01 -18.22,40.08 -133.65,1.57 -265.14,62.25 -351.71,164.09 -73.18,82.92 -113.46,192.44 -115.53,302.65 4.93,22.75 -26.79,40.19 -39.69,18.52 -9.55,-46.49 2.86,-94.75 12.61,-140.45 47.87,-196.19 221.01,-354.07 421.24,-382.14z"/>
    <path class="fil12" d="M1056.02 4257.97c-8.37,-21.57 16.05,-29.45 32.89,-28.66 22.46,52.19 42.75,106.27 78.5,151.38 19.6,28.75 47.96,50.33 67.76,78.78 6.89,21.48 -23.84,36.25 -37.53,19.31 -65.39,-59.19 -115.43,-136.5 -141.62,-220.81z"/>
   </g>
   <g id="_233a2d6bff">
    <path class="fil13" d="M3992.18 846.09c-12.7,-16.84 10.94,-39.1 28.27,-28.36 22.16,15.46 50.92,34.27 43.24,65.59 -31.02,12.9 -54.07,-15.85 -71.51,-37.23z"/>
   </g>
   <g id="_23382d67ff">
    <path class="fil14" d="M3543.07 823.64c50.43,27.97 97.7,60.96 145.87,92.68 -3.55,8.66 -7.19,17.43 -10.74,26.1 -50.42,-28.27 -96.12,-64.02 -146.45,-92.39 3.64,-8.86 7.39,-17.63 11.32,-26.39z"/>
   </g>
   <g id="_233b3166ff">
    <path class="fil15" d="M1401.02 934.34c36.35,-23.44 69.54,-51.8 108.84,-70.22 1.87,6.59 5.61,19.79 7.48,26.39 -37.32,22.85 -69.83,53.78 -110.5,70.82 -1.48,-6.8 -4.34,-20.29 -5.82,-26.99z"/>
    <g>
     <path class="fil0" d="M828.6 1527.64c34.28,-16.05 77.42,-12.11 113.56,-4.24 28.66,26.7 11.82,72.89 16.45,107.75 -5.31,-0.19 -15.86,-0.69 -21.18,-0.88 -2.26,-11.72 -4.52,-23.44 -6.89,-35.07 -28.26,0.1 -56.63,0.1 -84.99,0 -2.37,11.63 -4.73,23.35 -6.9,35.07 -5.22,0.1 -15.56,0.49 -20.68,0.69 3.34,-33.98 -8.57,-73.08 10.63,-103.32l0 0zm14.19 14.77c-0.4,7.88 -1.18,23.65 -1.68,31.52 31.52,0.69 63.13,0.79 94.65,0.2 -0.49,-7.98 -1.28,-23.94 -1.67,-31.91 -30.43,-2.07 -60.87,-1.97 -91.3,0.19z"/>
    </g>
    <g>
     <path class="fil15" d="M255.69 1819.47c27.87,-15.07 65.2,13.59 53.48,44.32 -6.9,28.56 -50.62,35.45 -65.99,11.32 -14.77,-17.23 -8.27,-46.49 12.51,-55.64l0 0zm-5.61 48.75c11.52,2.17 25.7,13.29 36.44,2.95 18.71,-10.24 7.97,-44.81 -13.89,-41.86 -21.47,-1.86 -22.16,23.74 -22.55,38.91z"/>
    </g>
    <g>
     <path class="fil15" d="M580.51 2224.65c24.23,-2.37 46.68,22.56 39.69,46.49 -4.53,26.49 -41.85,40.08 -61.16,19.89 -24.62,-19.99 -10.74,-64.6 21.47,-66.38l0 0zm-12.71 15.17c-2.06,11.43 -12.11,24.92 -2.95,35.85 8.86,19.8 46,7.49 42.25,-13.59 1.18,-21.57 -24.03,-22.06 -39.3,-22.26z"/>
    </g>
    <path class="fil15" d="M405.1 2461.42c28.66,-1.18 57.42,-1.48 86.18,-0.79 -7.49,29.15 -48.26,9.56 -70.62,15.46 -1.57,77.22 1.08,154.43 -1.38,231.55 -11.82,-3.25 -16.65,-10.83 -14.38,-22.75 0.69,-74.46 0.5,-148.91 0.2,-223.47z"/>
    <g>
     <path class="fil15" d="M571.74 2825.24c50.63,-20.68 63.43,69.73 14.38,73.77 -42.05,4.82 -54.86,-62.54 -14.38,-73.77l0 0zm-0.98 55.84c14.48,8.18 28.17,-3.64 41.17,-8.76 -4.73,-14.78 -12.61,-41.56 -33.68,-33.1 -19.7,1.78 -24.13,32.31 -7.49,41.86z"/>
    </g>
   </g>
   <g id="_2335bbe0ff">
    <path class="fil16" d="M1898.2 1001.61c75.64,-81.35 185.36,-130.8 296.75,-130.5 -100.66,126.46 -207.42,248 -311.92,371.31 -11.82,16.15 -30.04,31.41 -31.81,52.49 20.68,37.92 52.59,68.25 77.71,103.31 -43.93,4.63 -88.15,3.16 -132.17,1.98 -39.4,-138.58 1.77,-295.18 101.44,-398.59z"/>
    <path class="fil16" d="M1252.8 2079.97c37.62,-6.2 75.74,-6.2 113.76,-4.24 3.44,51.02 4.03,102.34 -2.07,153.16 -36.25,-2.66 -79.98,11.23 -110.91,-11.92 -12.3,-43.93 -6.1,-91.99 -0.78,-137z"/>
   </g>
   <g id="_23302e75ff">
    <path class="fil17 str0" d="M2194.95 871.11c4.23,0 12.8,0 17.04,0 67.56,78.5 133.16,158.86 201.21,237.07 -7.19,14.67 -14.28,29.34 -21.37,43.92 -10.44,-11.42 -20.69,-23.05 -30.63,-34.97 -51.51,-61.65 -101.05,-125.27 -156.3,-183.78 -103.51,116.91 -202,238.15 -303.55,356.73 27.08,36.15 55.85,71.11 85.39,105.19l4.73 5.32c-20.19,-8.18 -41.95,-9.56 -62.54,-2.37 -25.12,-35.06 -57.03,-65.39 -77.71,-103.31 1.77,-21.08 19.99,-36.34 31.81,-52.49 104.5,-123.31 211.26,-244.85 311.92,-371.31z"/>
    <path class="fil17" d="M4204.53 1580.82c10.14,-5.02 20.88,-8.76 32.21,-11.22 4.82,22.55 8.46,45.99 2.75,68.84 -19.2,91.89 -41.16,183.19 -57.03,275.67 -14.96,65.5 -28.65,131.39 -42.74,197.08 -11.42,52.7 -23.14,105.29 -34.57,157.88 -6.6,30.63 -11.13,61.55 -14.67,92.58 106.56,4.83 213.32,-0.29 320.09,3.35 2.86,13.79 2.17,27.38 -1.87,40.87 -121.83,0.2 -244.16,4.63 -365.79,-2.26 -2.56,-15.27 -12.41,-30.93 -8.28,-46.39 10.94,-25.71 20.88,-52.1 25.81,-79.78 45.5,-232.73 101.24,-463.39 144.09,-696.62z"/>
   </g>
   <g id="_2335bbdfff">
    <path class="fil18" d="M2211.99 871.11c181.02,-3.15 351.5,130.01 398.98,303.64 28.16,91.11 19.01,189.69 -13.89,278.24 -37.03,-23.15 -77.51,-39.99 -119.56,-51.41 25.8,-36.05 59.38,-66.68 80.66,-105.98 -12.41,-43.63 -51.81,-72.09 -78.3,-107.26 -22.06,-26.89 -43.73,-54.06 -66.68,-80.16 -68.05,-78.21 -133.65,-158.57 -201.21,-237.07z"/>
   </g>
   <g id="_2335bce0ff">
    <path class="fil18" d="M2204.9 933.35c55.25,58.51 104.79,122.13 156.3,183.78 -11.33,4.83 -22.55,9.76 -33.78,14.58 -38.81,-44.81 -75.05,-91.98 -116.91,-134.14 -45.11,22.95 -69.43,69.53 -103.02,105.19 -24.62,31.42 -58.01,57.72 -72.59,95.73 -6.1,21.57 22.07,29.15 33.88,13.69 49.84,-46.29 86.18,-105.19 134.94,-152.86 48.25,45.01 85.78,99.78 131.18,147.44 -31.22,19.01 -59.88,42.06 -83.12,70.32 28.56,36.25 57.91,74.76 101.93,92.98 -8.96,-39.3 7,-76.43 21.28,-112.08 16.25,21.27 35.26,40.38 54.85,58.6 9.86,-6.8 19.7,-13.69 29.65,-20.49 -11.72,-18.91 -23.84,-37.62 -38.21,-54.56 7.97,-8.97 15.95,-17.83 23.93,-26.59 21.77,25.51 43.93,50.82 62.05,79.19 -27.58,36.04 -58.8,69.03 -87.46,104.09 -45.6,0.2 -91.01,1.29 -136.51,0.79 3.26,-16.93 6.6,-33.88 9.85,-50.82 -13.29,7.98 -26.49,16.06 -39.59,24.33 7.29,-17.53 16.74,-34.76 18.22,-53.97 -20.78,-23.54 -60.57,-14.78 -69.34,15.16 -9.65,28.17 -32.4,45.8 -59.09,56.93 2.76,2.37 8.37,7 11.13,9.36 -19.11,-0.39 -38.21,-1.58 -56.93,-5.02 -44.91,-34.48 -70.61,-88.44 -114.44,-124.4 -9.56,0.99 -18.91,3.25 -27.87,6.7 4.82,50.72 57.02,76.23 75.54,121.24 -15.07,1.28 -29.74,0.2 -44.03,-3.25 -29.54,-34.08 -58.31,-69.04 -85.39,-105.19 101.55,-118.58 200.04,-239.82 303.55,-356.73z"/>
    <path class="fil19" d="M2701.09 1911.94c39.49,-38.6 78.1,-78.39 119.07,-115.62 2.46,175.02 -0.1,350.13 0.99,525.15 2.95,85.19 -49.15,165.56 -122.72,206.13 -0.49,-173.92 0.1,-347.86 -0.2,-521.79 0.4,-31.33 -2.95,-62.94 2.86,-93.87z"/>
    <path class="fil20" d="M3945.5 3664.96c8.08,-29.74 19.3,-58.5 27.48,-88.25 156.79,115.24 191.36,357.72 83.02,517.27 -0.39,-67.47 7.89,-136.51 -6.69,-202.89 -13.99,-44.12 -64.81,-48.46 -103.22,-54.46 -5.42,-57.13 -5.32,-114.55 -0.59,-171.67z"/>
    <path class="fil19" d="M1163.47 4008.69c36.44,-166.35 191.85,-298.42 362.84,-302.56 -1.48,22.95 -3.06,45.9 -4.74,68.85 -51.8,1.18 -103.8,-3.36 -155.5,1.28 -37.43,2.06 -67.57,34.66 -69.74,71.5 -5.12,55.65 -3.64,111.79 -1.67,167.63 -0.2,35.06 19.2,73.08 55.05,82.83 45.21,9.75 91.9,3.15 137.69,3.15 12.51,1.87 25.02,3.74 37.53,5.71 -0.59,78.1 2.95,156.11 -1.48,234.11 -51.41,3.84 -103.22,5.12 -154.53,-1.48 -12.81,-23.83 -26.4,-48.45 -50.73,-62.44 -26.88,41.27 3.56,100.46 51.12,106.86 51.12,6.11 102.82,0.5 154.04,4.33 1.77,34.38 2.36,68.85 2.36,103.32 -100.36,-5.12 -198.35,-50.03 -266.21,-124.49 -89.82,-93.17 -126.27,-232.93 -96.03,-358.6z"/>
    <path class="fil21" d="M1765.34 3855.63c20.19,-12.4 42.35,-20.87 64.02,-30.23 79.77,79.48 120.16,196.09 109.71,307.98 -6.99,86.28 -44.41,169.6 -103.02,233.13 -68.54,73.96 -166.34,119.86 -267,125.07 -0.59,-34.27 -0.2,-68.64 1.58,-102.82 52.49,-4.04 105.28,0.49 157.78,-3.64 38.21,-2.27 68.45,-37.43 69.33,-74.95 3.64,-55.75 3.05,-111.89 0.59,-167.73 -0.09,-35.16 -22.26,-73.08 -59.09,-79.09 -54.57,-8.47 -110.31,-3.94 -165.07,0.79 -10.05,-59.29 -3.54,-119.47 -3.45,-179.15 34.57,27.87 71.51,53.18 113.27,68.94 -11.43,-23.15 -24.23,-45.5 -37.92,-67.27 4.13,-6.7 8.37,-13.3 12.61,-19.9 17.33,12.61 33.87,26.89 53.27,36.45 12.12,3.44 17.93,-12.9 26.01,-18.72 8.76,-9.95 17.73,-19.69 27.38,-28.86z"/>
    <path class="fil19" d="M1570.63 4104.72c49.83,-1.88 99.86,-5.12 149.6,-0.1 20.29,-0.2 37.03,18.32 35.16,38.51 1.08,52.3 1.08,104.79 0.1,157.09 1.87,20.78 -13.89,41.07 -35.36,41.56 -49.64,4.43 -99.77,2.07 -149.5,-0.19 -3.16,-78.9 -3.35,-157.98 0,-236.87z"/>
   </g>
   <g id="_23312e76ff">
    <path class="fil22" d="M2107.49 1102.76c33.59,-35.66 57.91,-82.24 103.02,-105.19 41.86,42.16 78.1,89.33 116.91,134.14 29.65,34.77 58.01,70.72 89.13,104.31 -4.23,5.12 -12.7,15.36 -16.94,20.48 -20.29,-14.48 -40.77,-28.66 -59.98,-44.52l-4.73 -5.22c-45.4,-47.66 -82.93,-102.43 -131.18,-147.44 -48.76,47.67 -85.1,106.57 -134.94,152.86 -11.81,15.46 -39.98,7.88 -33.88,-13.69 14.58,-38.01 47.97,-64.31 72.59,-95.73z"/>
    <g>
     <path class="fil22" d="M3630.63 3472.71c14.18,-6.01 40.28,-10.94 40.38,12.11 1.87,22.85 2.27,45.8 2.95,68.75 25.42,1.87 50.82,2.27 76.33,1.58 0.4,-23.35 0.4,-46.69 1.98,-70.03 2.76,-22.85 26.89,-18.71 42.05,-11.92 0.1,4.64 0.29,13.99 0.39,18.62 0.4,20.19 1.09,40.57 3.36,60.77 3.05,15.66 6.89,31.12 10.63,46.68 -93.46,4.83 -187.92,-7.39 -280.6,8.07 -18.91,23.25 -14.08,54.57 -15.46,82.34 1.08,44.03 -3.55,89.03 5.91,132.37 16.45,22.56 48.36,17.44 72.78,19.6 92.88,-1.77 185.75,1.28 278.63,-1.48 6.11,-0.49 18.22,-1.67 24.33,-2.26 0.98,-49.44 1.28,-98.88 2.06,-148.33 13.3,-5.42 26.69,-10.73 40.09,-16.05 2.56,53.77 -0.59,107.55 0.99,161.23l8.66 1.87c38.41,6 89.23,10.34 103.22,54.46 14.58,66.38 6.3,135.42 6.69,202.89 -2.75,37.73 -34.17,67.66 -69.73,76.34 -62.34,-1.29 -124.78,-4.24 -187.12,0.68 -2.86,29.55 -6.01,59.09 -11.63,88.35 -10.63,-1.28 -21.27,-2.47 -31.71,-3.65 -2.76,-28.66 -4.83,-57.32 -6.89,-85.98 -24.53,-0.79 -49.05,-0.49 -73.48,1.18 -1.96,28.96 -4.82,57.92 -8.96,86.77 -10.54,0 -20.97,0 -31.42,0.1 -3.54,-28.56 -6.4,-57.22 -8.66,-85.88 -37.04,-3.55 -75.54,0.2 -111.3,-11.63 -37.33,-15.65 -47.37,-59.19 -45.79,-95.83 0.88,-138.08 -0.2,-276.26 0.39,-414.34 -1.28,-35.95 15.17,-75.44 50.82,-88.74 35.16,-7.97 71.6,-5.61 107.45,-8.37 0.59,-19.99 1.28,-39.89 1.97,-59.69 0.1,-5.12 0.49,-15.45 0.69,-20.58l0 0zm-116.12 407.94c-2.07,61.26 -0.98,122.72 -1.38,184.08 1.19,17.92 -2.26,41.27 15.86,52.3 18.91,10.34 41.76,7.29 62.54,8.67 121.73,-0.99 243.37,0.19 365,-0.59 21.97,0.49 54.27,-5.32 54.37,-33.39 2.17,-57.82 2.17,-115.93 0,-173.64 0.69,-23.64 -24.53,-33.98 -44.52,-33.09 -150.59,-3.94 -301.47,4.13 -451.87,-4.34z"/>
    </g>
   </g>
   <g id="_23595692ff">
    <path class="fil22 str0" d="M2413.2 1108.18c22.95,26.1 44.62,53.27 66.68,80.16 -17.73,1.28 -35.46,2.57 -53.09,3.85 -11.22,-13.79 -23.05,-26.99 -34.96,-40.09 7.09,-14.58 14.18,-29.25 21.37,-43.92z"/>
   </g>
   <g id="_236fc7eaff">
    <path class="fil18 str1" d="M2327.42 1131.71c11.23,-4.82 22.45,-9.75 33.78,-14.58 9.94,11.92 20.19,23.55 30.63,34.97 11.91,13.1 23.74,26.3 34.96,40.09 6.11,7.48 12.22,15.06 18.42,22.75 -7.98,8.76 -15.96,17.62 -23.93,26.59l-4.73 -5.51c-31.12,-33.59 -59.48,-69.54 -89.13,-104.31z"/>
   </g>
   <g id="_23392d67ff">
    <g>
     <path class="fil23" d="M3935.36 1167.57c7.38,-5.92 14.48,-21.28 26,-13.3 23.24,21.66 43.13,46.68 65.1,69.63 121.73,-30.53 249.87,-30.83 372.58,-5.61 175.42,38.6 336.15,139.66 447.25,280.79 109.91,136.9 170.48,311.52 171.17,486.84 3.15,221.01 -94.45,438.76 -255.58,588.67 -79.78,70.12 -171.47,126.16 -271.43,162.4 -4.93,37.72 -10.94,75.25 -16.75,112.77 -6.01,-0.09 -18.22,-0.39 -24.23,-0.48 -2.46,-34.28 5.71,-67.87 9.76,-101.55 -156.41,45.7 -326.6,46.19 -481.33,-6.01 -193.43,-62.54 -358.99,-204.26 -452.75,-384.31 -89.13,-168.41 -113.07,-369.72 -67.56,-554.59 62.54,-266.9 274.58,-490.87 536.86,-569.57 -19.3,-22.25 -39.3,-43.82 -59.09,-65.68l0 0zm181.51 53.87c-242.87,32.8 -464.47,189.19 -577.34,406.66 -84.9,158.67 -110.6,347.47 -73.08,523.27 35.75,171.57 132.37,329.46 268.19,440.15 140.94,116.22 324.03,179.75 506.72,175.22 184.57,-2.37 366.68,-74.85 503.58,-198.46 109.81,-98.59 191.07,-228.89 229.97,-371.31 50.82,-183.38 31.62,-385.48 -54.56,-555.28 -62.14,-124 -158.67,-230.27 -275.28,-305.31 -155.02,-99.09 -345.69,-143.41 -528.2,-114.94z"/>
    </g>
   </g>
   <g id="_23302e76ff">
    <path class="fil22" d="M2426.79 1192.19c17.63,-1.28 35.36,-2.57 53.09,-3.85 26.49,35.17 65.89,63.63 78.3,107.26 -21.28,39.3 -54.86,69.93 -80.66,105.98 -4.53,-6.7 -9.07,-13.5 -13.5,-20.19 -14.48,8.66 -29.05,17.03 -43.72,25.21l-0.5 -8.38c28.66,-35.06 59.88,-68.05 87.46,-104.09 -18.12,-28.37 -40.28,-53.68 -62.05,-79.19 -6.2,-7.69 -12.31,-15.27 -18.42,-22.75z"/>
    <g>
     <path class="fil22" d="M1574.17 4064.14c54.76,-4.73 110.5,-9.26 165.07,-0.79 36.83,6.01 59,43.93 59.09,79.09 2.46,55.84 3.05,111.98 -0.59,167.73 -0.88,37.52 -31.12,72.68 -69.33,74.95 -52.5,4.13 -105.29,-0.4 -157.78,3.64 -1.78,34.18 -2.17,68.55 -1.58,102.82 -14.48,0.2 -28.86,0.3 -43.34,0.2 0,-34.47 -0.59,-68.94 -2.36,-103.32 -51.22,-3.83 -102.92,1.78 -154.04,-4.33 -47.56,-6.4 -78,-65.59 -51.12,-106.86 24.33,13.99 37.92,38.61 50.73,62.44 51.31,6.6 103.12,5.32 154.53,1.48 4.43,-78 0.89,-156.01 1.48,-234.11 16.64,-13.98 33.18,-28.17 49.24,-42.94l0 0zm-3.54 40.58c-3.35,78.89 -3.16,157.97 0,236.87 49.73,2.26 99.86,4.62 149.5,0.19 21.47,-0.49 37.23,-20.78 35.36,-41.56 0.98,-52.3 0.98,-104.79 -0.1,-157.09 1.87,-20.19 -14.87,-38.71 -35.16,-38.51 -49.74,-5.02 -99.77,-1.78 -149.6,0.1z"/>
    </g>
   </g>
   <g id="_2358c7e5ff">
    <path class="fil18 str1" d="M2334.9 1206.76l4.73 5.22c12.21,14.97 23.54,30.63 35.36,46 -14.28,35.65 -30.24,72.78 -21.28,112.08 -44.02,-18.22 -73.37,-56.73 -101.93,-92.98 23.24,-28.26 51.9,-51.31 83.12,-70.32z"/>
   </g>
   <g id="_232b3276ff">
    <path class="fil24 str0" d="M2339.63 1211.98c19.21,15.86 39.69,30.04 59.98,44.52 4.24,-5.12 12.71,-15.36 16.94,-20.48l4.73 5.51c14.37,16.94 26.49,35.65 38.21,54.56 -9.95,6.8 -19.79,13.69 -29.65,20.49 -19.59,-18.22 -38.6,-37.33 -54.85,-58.6 -11.82,-15.37 -23.15,-31.03 -35.36,-46z"/>
   </g>
   <g id="_232f316eff">
    <path class="fil25" d="M1308.15 1250.69c29.25,-5.81 58.6,-12.41 88.54,-12.12 8.27,0.2 24.72,0.4 32.9,0.59 -1.87,37.92 -0.89,75.94 1.18,113.86 -3.35,3.45 -9.95,10.25 -13.29,13.69 -2.37,-35.35 -3.55,-70.92 -4.44,-106.37 -219.63,41.17 -438.38,86.97 -658.3,126.95 13.89,-11.61 27.18,-23.93 41.07,-35.65 170.39,-35.26 341.66,-66.78 512.34,-100.95z"/>
   </g>
   <g id="_2337bae0ff">
    <path class="fil26" d="M754.74 1387.29c219.92,-39.98 438.67,-85.78 658.3,-126.95 0.89,35.45 2.07,71.02 4.44,106.37 3.34,-3.44 9.94,-10.24 13.29,-13.69 0.89,6.01 2.66,17.83 3.45,23.74 -18.32,32 -57.23,24.03 -88.15,24.82 -210.18,-1.28 -420.45,-0.69 -630.63,-0.4 13.1,-4.73 26.2,-9.26 39.3,-13.89z"/>
   </g>
   <g id="_23382c6bff">
    <g>
     <path class="fil27" d="M4173.7 1282.3c19.6,0.5 33.78,-14.18 50.03,-22.75 15.07,3.25 26.01,15.96 40.48,21.37 46.1,8.37 93.57,9.06 139.07,21.38 102.13,26.69 198.85,75.54 279.12,144.38 16.84,17.64 41.96,18.82 64.31,24.04 4.83,20.19 4.44,43.43 20,59.28 97.9,113.07 156.99,258.44 167.83,407.55 -0.2,19.9 16.14,33.39 24.42,50.14 -0.99,21.17 -26.79,33.78 -24.62,56.73 -10.54,149.11 -70.82,293.69 -168.03,407.25 -15.85,15.66 -15.36,38.8 -19.5,59.19 -22.45,5.71 -47.86,6.21 -64.9,24.03 -112.19,95.04 -254.89,153.45 -401.64,163.3 -26.69,-4.73 -45.41,42.25 -69.44,18.12 -22.65,-24.13 -57.32,-17.93 -86.96,-23.15 -131.69,-18.22 -257.46,-75.83 -358.21,-162.3 -16.06,-15.27 -39.3,-14.58 -59.49,-19.5 -5.12,-22.46 -6.3,-47.58 -23.83,-64.62 -81.15,-95.14 -135.33,-212.83 -156.11,-336.04 -5.51,-30.53 -5.32,-62.15 -13.88,-92.09 -9.46,-8.47 -16.06,-19.11 -21.67,-30.24 11.32,-15.75 27.58,-30.53 27.38,-51.51 10.63,-147.14 68.55,-290.15 164.08,-402.62 17.04,-16.84 18.81,-41.37 24.33,-63.33 22.16,-5.61 46.68,-7.88 63.82,-24.72 112.57,-95.73 255.98,-153.74 403.41,-163.89l0 0zm-398.19 178.56c-16.05,12.22 -21.57,32.21 -28.76,50.13 -17.63,7.49 -37.72,12.61 -50.03,28.37 -94.55,110.6 -153.45,251.64 -163.98,396.92 -2.67,20.48 11.52,38.4 11.12,58.4 -4.23,16.84 -12.6,33.09 -11.03,50.91 8.17,114.65 46.98,226.53 109.52,322.86 26,35.95 48.06,80.47 91.7,97.8 22.75,9.55 21.66,41.07 42.05,54.46 112.67,96.32 257.26,155.22 405.48,163.79 15.17,1.18 28.17,-8.67 41.86,-13.79 18.71,6.5 37.62,16.45 58.31,13.2 111.58,-8.37 220.81,-45.31 315.36,-105.09 38.02,-27.28 85.68,-49.64 104.4,-95.44 9.35,-23.14 40.97,-21.86 54.56,-42.15 94.25,-110.31 152.27,-250.95 163.89,-395.64 3.54,-18.81 -7.88,-34.76 -13.01,-51.9 -0.59,-16.94 14.68,-30.73 13.3,-47.96 -8.57,-148.13 -67.46,-292.71 -163.69,-405.48 -12.41,-16.06 -32.3,-21.77 -50.13,-29.26 -11.23,-46.38 -54.17,-71 -90.41,-96.61 -98.79,-67.96 -215.89,-107.16 -334.76,-119.37 -19.41,-4.14 -34.97,9.65 -51.81,15.96 -19.8,-1.58 -36.44,-17.64 -57.03,-14.29 -145.17,11.03 -286.5,69.24 -396.91,164.18z"/>
    </g>
   </g>
   <g id="_235ec8e7ff">
    <path class="fil18 str1" d="M2202.43 1333.71c8.77,-29.94 48.56,-38.7 69.34,-15.16 -1.48,19.21 -10.93,36.44 -18.22,53.97 13.1,-8.27 26.3,-16.35 39.59,-24.33 -3.25,16.94 -6.59,33.89 -9.85,50.82 -42.94,-0.29 -85.88,2.17 -128.82,0.99 -2.76,-2.36 -8.37,-6.99 -11.13,-9.36 26.69,-11.13 49.44,-28.76 59.09,-56.93z"/>
   </g>
   <g id="_23392a72ff">
    <g>
     <path class="fil28" d="M4117.07 1389.26c135.72,-24.52 279.81,-2.26 400.75,64.32 129.81,69.82 232.44,188.51 282.67,327.08 48.85,131.78 49.14,280.6 2.76,413.17 -51.9,148.52 -163.5,275.27 -304.83,344.71 -108.83,55.05 -234.7,74.46 -355.35,58.2 -138.08,-18.12 -268.68,-86.08 -363.33,-188.11 -104.4,-110.11 -164.28,-260.7 -164.87,-412.47 -2.36,-162.12 63.93,-323.94 179.35,-437.69 86.87,-87.85 201.32,-147.64 322.85,-169.21l0 0zm20.39 11.63c-184.18,26.09 -351.02,145.07 -437.89,309.25 -75.74,140.84 -91.2,312.81 -41.07,464.78 54.56,172.15 192.55,315.26 362.55,376.42 90.11,31.22 190.57,50.53 284.04,22.16 130.79,-35.06 248.98,-115.33 328.75,-224.75 95.74,-127.64 136.22,-294.68 110.81,-452.16 -26.3,-174.24 -134.15,-333.69 -285.53,-423.61 -95.73,-57.03 -209.68,-94.95 -321.66,-72.09z"/>
    </g>
    <g>
     <path class="fil28" d="M3655.15 3272.68c142.62,-15.66 291.04,20.19 409.23,101.84 30.43,25.31 60.07,51.71 91.2,76.33 181.81,175.4 228.79,469 117.4,694.74 -64.61,134.64 -180.14,243.86 -318.32,300.59 -138.77,57.42 -299.02,60.77 -440.25,9.85 -138.97,-49.44 -257.84,-151.77 -328.76,-280.89 -86.07,-154.93 -99.66,-348.16 -35.05,-513.33 78.09,-210.57 281.08,-367.07 504.55,-389.13l0 0zm-30.13 19.01c-147.54,23.53 -284.34,105.57 -375.35,224.06 -86.08,109.81 -130.59,251.05 -124.09,390.41 5.12,144.19 66.18,285.13 166.64,388.54 112.08,117.7 274.59,186.05 437.3,182.31 196.88,-25.22 375.24,-157.88 459.15,-337.52 72.49,-149.32 77.71,-328.96 15.96,-482.8 -44.03,-106.86 -115.33,-205.05 -212.55,-269.37 -105.57,-73.08 -237.35,-123.9 -367.06,-95.63z"/>
    </g>
    <path class="fil28" d="M1337.6 3524.02c198.55,-73.77 437,-35.75 597.43,104.4 -14.57,1.48 -29.15,2.96 -43.72,4.43 -1.68,6.7 -4.93,20.19 -6.5,26.89 -88.94,-81.25 -201.12,-140.55 -321.27,-156.5 -166.25,-8.37 -333.69,62.35 -447.74,182.9 -104.59,107.94 -165.37,257.05 -165.56,407.45 -2.07,137.09 45.9,274.29 132.96,380.27 99.57,124.49 251.05,205.25 409.82,219.14 96.42,11.32 191.26,-24.24 274.68,-69.74 167.04,-94.25 283.75,-271.93 301.68,-463.19 18.02,-163.4 -36.54,-331.03 -142.42,-456.01 15.46,-15.16 27.87,-32.89 37.92,-52 108.63,101.74 178.76,243.86 190.87,392.48 13.79,149.41 -29.94,303.35 -121.24,422.52 -85.98,114.54 -213.53,197.47 -353.48,228.1 -118.38,26 -244.74,17.63 -357.62,-27.38 -165.95,-63.72 -299.6,-204.76 -355.93,-373.18 -49.35,-145.56 -41.67,-309.94 22.85,-449.6 66.37,-147.83 194.71,-266.31 347.27,-320.98z"/>
   </g>
   <g id="_23605890ff">
    <path class="fil22 str0" d="M2097.54 1394.98c18.72,3.44 37.82,4.63 56.93,5.02 42.94,1.18 85.88,-1.28 128.82,-0.99 45.5,0.5 90.91,-0.59 136.51,-0.79l0.5 8.38c-65.7,-7.59 -132.18,-6.21 -198.07,-1.97 -29.45,-0.1 -39.99,31.51 -51.81,52.79 -12.21,0.1 -24.32,0.3 -36.33,0.49 -8.87,-22.75 -14.98,-48.66 -36.55,-62.93z"/>
   </g>
   <g id="_233e3564ff">
    <path class="fil0" d="M688.16 1514.05c3.94,1.09 11.72,3.45 15.56,4.53 6.99,29.64 3.35,60.57 4.63,90.81 21.77,0 43.53,-0.2 65.4,-0.4 1.77,-29.34 1.38,-58.8 2.85,-88.14 5.42,-0.79 16.45,-2.47 21.87,-3.26 0.09,33.98 3.45,68.46 -2.86,102.04 -15.46,16.55 -39.79,10.83 -59.78,12.41 -41.86,-1.48 -84.12,2.86 -125.57,-2.95 -16.85,-4.83 -15.77,-22.85 -16.56,-36.84 -1.08,-24.42 -0.19,-48.75 0.2,-73.08 5.81,-0.1 17.44,-0.2 23.35,-0.3 -0.1,30.04 0,59.99 1.47,89.93 21.97,0.39 43.93,0.49 65.89,0.69 0.79,-31.82 0.69,-63.73 3.55,-95.44z"/>
   </g>
   <g id="_23433b63ff">
    <path class="fil0" d="M978.11 1518.97c5.72,0.1 17.04,0.1 22.65,0.1 -0.59,29.94 -0.39,59.89 0.99,89.82 26.1,0.1 52.3,0.4 78.4,0.89 0,5.32 0,15.86 -0.1,21.18 -33.78,1.18 -67.67,1.08 -101.44,0.49 -0.99,-37.43 -0.99,-74.95 -0.5,-112.48z"/>
   </g>
   <g id="_23fdf8feff">
    <path class="fil29" d="M842.79 1542.41c30.43,-2.16 60.87,-2.26 91.3,-0.19 0.39,7.97 1.18,23.93 1.67,31.91 -31.52,0.59 -63.13,0.49 -94.65,-0.2 0.5,-7.87 1.28,-23.64 1.68,-31.52z"/>
   </g>
   <g id="_2351acd9ff">
    <path class="fil30" d="M4236.74 1569.6c12.9,4.43 25.8,8.77 38.7,13.29 -27.18,113.46 -39.1,230.86 -75.34,342.06 -4.44,-2.66 -13.3,-8.08 -17.64,-10.84 15.87,-92.48 37.83,-183.78 57.03,-275.67 5.71,-22.85 2.07,-46.29 -2.75,-68.84z"/>
    <path class="fil30" d="M4139.72 2111.19c6.01,-1.77 17.93,-5.22 23.84,-6.99 -11.53,58.7 -24.03,117.2 -33.19,176.29 -8.47,-3.64 -16.85,-7.58 -25.22,-11.42 11.43,-52.59 23.15,-105.18 34.57,-157.88z"/>
   </g>
   <g id="_232e2f75ff">
    <path class="fil31" d="M4275.44 1582.89c10.24,-18.12 32.11,-3.84 44.82,3.85 -28.86,120.45 -47.77,243.16 -75.65,363.81 -9.45,1.88 -18.91,3.85 -28.26,5.81 -5.32,-10.53 -10.54,-21.17 -16.25,-31.41 36.24,-111.2 48.16,-228.6 75.34,-342.06z"/>
   </g>
   <g id="_2334bce0ff">
    <path class="fil20" d="M4082.5 1600.03c38.91,-13.69 80.37,-26.88 122.03,-19.21 -42.85,233.23 -98.59,463.89 -144.09,696.62 -4.93,27.68 -14.87,54.07 -25.81,79.78 -167.52,-76.23 -256.66,-280.8 -215.1,-457.78 30.24,-135.33 131.98,-252.92 262.97,-299.41z"/>
    <path class="fil20" d="M4320.26 1586.74c132.46,26.68 246.02,127.14 294.28,252.82 56.73,142.21 26.89,316.15 -78.2,428.52 -17.43,-11.42 -36.34,-21.56 -57.72,-19.89 -98.68,-0.59 -197.47,1.67 -296.16,0 3.75,-54.36 24.34,-106.17 25.81,-160.64 -8.47,-7.58 -20.29,-8.86 -30.43,-12.8 -5.02,9.75 -9.75,19.5 -14.28,29.45 -5.91,1.77 -17.83,5.22 -23.84,6.99 14.09,-65.69 27.78,-131.58 42.74,-197.08 4.34,2.76 13.2,8.18 17.64,10.84 5.71,10.24 10.93,20.88 16.25,31.41 9.35,-1.96 18.81,-3.93 28.26,-5.81 27.88,-120.65 46.79,-243.36 75.65,-363.81z"/>
    <path class="fil20" d="M3512.64 3689.68c1.38,-27.77 -3.45,-59.09 15.46,-82.34 83.42,11.23 167.73,-2.36 251.06,9.17 3.93,14.37 8.17,28.75 12.31,43.13 30.03,12.61 60.56,24.23 91.59,34.48 5.02,48.94 7.38,100.06 -13.1,146.05 -92.88,2.76 -185.75,-0.29 -278.63,1.48 -24.42,-2.16 -56.33,2.96 -72.78,-19.6 -9.46,-43.34 -4.83,-88.34 -5.91,-132.37z"/>
   </g>
   <g id="_23fefdfeff">
    <path class="fil32" d="M2850.5 1788.74c-6.01,-52.5 36.63,-91.01 60.56,-133.06 2.07,228.39 0.3,456.99 0.89,685.49 0.79,119.36 -103.71,218.44 -217.75,235.19 6.59,-19.21 26.48,-26.99 41.55,-38.22 70.82,-47.47 115.93,-131.38 115.14,-216.87 -0.2,-177.48 0.3,-355.05 -0.39,-532.53z"/>
   </g>
   <g id="_23fdfaffff">
    <g>
     <path class="fil33" d="M1290.03 1792.08c114.05,-21.66 236.28,0.2 334.17,63.13 108.34,67.37 186.15,181.43 208.9,307 24.13,126.07 -6.9,261.69 -85,363.72 -76.92,103.51 -198.85,171.96 -327.38,183.59 -113.85,11.22 -231.05,-22.46 -322.35,-91.31 -177.38,-127.64 -237.07,-387.55 -134.84,-580.39 63.83,-125.97 187.53,-219.83 326.5,-245.74l0 0zm79.28 20.99c-55.64,10.33 -113.06,16.34 -164.97,40.77 -48.95,20.58 -89.72,55.16 -133.75,84.11 -31.22,44.42 -66.08,87.55 -87.46,138.08 -24.91,54.57 -31.12,114.94 -41.66,173.24 10.94,54.27 15.76,110.51 38.22,161.82 19.7,52.1 56.14,94.85 86.08,141.14 75.14,60.57 162.01,112.67 260.5,122.42 54.56,15.76 110.02,-1.28 163.69,-12.31 72.49,-17.23 133.65,-61.36 192.75,-104.5 35.35,-47.47 72.68,-95.04 93.85,-151.08 20.99,-49.64 25.61,-103.71 37.63,-155.81 -11.13,-61.85 -18.72,-126.07 -46.49,-183.49 -20.88,-45.8 -52.89,-85 -81.15,-126.16 -61.76,-47.38 -127.45,-93.67 -204.96,-110.41 -37.13,-6.8 -74.66,-16.84 -112.28,-17.82z"/>
    </g>
    <g>
     <path class="fil33" d="M247.32 1812.18c32.5,-13 79.28,3.94 72.68,45.01 -0.29,46.78 -75.64,55.64 -90.6,13.98 -9.46,-20.88 -1.28,-46.78 17.92,-58.99l0 0zm8.37 7.29c-20.78,9.15 -27.28,38.41 -12.51,55.64 15.37,24.13 59.09,17.24 65.99,-11.32 11.72,-30.73 -25.61,-59.39 -53.48,-44.32z"/>
    </g>
    <g>
     <path class="fil33" d="M701.95 1814.84c31.22,-24.14 82.82,2.46 75.93,43.14 -1.08,45.5 -71.01,56.83 -89.23,17.23 -1.87,-20.09 -7.09,-47.87 13.3,-60.37l0 0zm-7.09 42.74c-0.99,35.36 41.86,35.75 65.69,25.51 9.06,-22.07 13.1,-59 -17.14,-65.6 -25.6,-10.63 -55.25,12.31 -48.55,40.09z"/>
    </g>
    <path class="fil33" d="M250.08 1868.22c0.39,-15.17 1.08,-40.77 22.55,-38.91 21.86,-2.95 32.6,31.62 13.89,41.86 -10.74,10.34 -24.92,-0.78 -36.44,-2.95z"/>
    <g>
     <path class="fil33" d="M572.04 2216.67c35.75,-12.11 72.09,30.83 55.35,64.02 -9.55,24.13 -40.67,37.13 -64.02,24.82 -37.62,-15.75 -32.8,-81.35 8.67,-88.84l0 0zm8.47 7.98c-32.21,1.78 -46.09,46.39 -21.47,66.38 19.31,20.19 56.63,6.6 61.16,-19.89 6.99,-23.93 -15.46,-48.86 -39.69,-46.49z"/>
    </g>
    <path class="fil33" d="M567.8 2239.82c15.27,0.2 40.48,0.69 39.3,22.26 3.75,21.08 -33.39,33.39 -42.25,13.59 -9.16,-10.93 0.89,-24.42 2.95,-35.85z"/>
    <g>
     <path class="fil33" d="M237.47 2405.58c35.46,-12.22 72.49,29.94 55.65,63.52 -10.64,33.49 -61.76,39.2 -81.45,11.13 -17.34,-25.41 -7.49,-68.25 25.8,-74.65l0 0zm-10.64 15.16c-26,17.43 -14.97,65.3 17.04,67.76 26.59,5.42 50.73,-22.45 41.86,-47.96 -5.81,-24.82 -39.1,-34.86 -58.9,-19.8z"/>
    </g>
    <g>
     <path class="fil33" d="M563.07 2818.35c34.09,-18.91 81.46,19.3 66.59,56.53 -4.34,28.36 -40.09,39.99 -64.32,30.04 -35.65,-12.31 -36.93,-72.39 -2.27,-86.57l0 0zm8.67 6.89c-40.48,11.23 -27.67,78.59 14.38,73.77 49.05,-4.04 36.25,-94.45 -14.38,-73.77z"/>
    </g>
    <path class="fil33" d="M570.76 2881.08c-16.64,-9.55 -12.21,-40.08 7.49,-41.86 21.07,-8.46 28.95,18.32 33.68,33.1 -13,5.12 -26.69,16.94 -41.17,8.76z"/>
   </g>
   <g id="_23fcf9feff">
    <path class="fil34" d="M719.48 1831.68c27.57,-15.17 49.64,29.15 21.86,42.74 -26.98,12.8 -48.06,-28.85 -21.86,-42.74z"/>
   </g>
   <g id="_23fdfbfeff">
    <g>
     <path class="fil35" d="M1290.13 1841.63c117.39,-22.56 245.63,1.27 339.98,77.01 47.08,42.06 93.47,87.46 119.76,146.06 77.71,154.54 46.79,361.06 -83.71,477.68 -147.93,160.24 -431.97,159.06 -579.51,-1.28 -141.43,-128.53 -162.32,-360.67 -58.5,-518.35 62.24,-88.64 153.64,-160.44 261.98,-181.12l0 0zm29.84 39.98c-113.76,17.14 -216.88,90.71 -270.06,192.75 -54.56,101.44 -57.12,228.69 -7.19,332.4 39.79,84.11 112.28,152.26 199.14,185.75 98.79,39.2 214.71,32.9 308.38,-17.33 156.3,-78.6 236.47,-276.27 179.55,-441.63 -51.71,-169.01 -235.39,-282.86 -409.82,-251.94z"/>
    </g>
   </g>
   <g id="_23382b6fff">
    <g>
     <path class="fil36" d="M1319.97 1881.61c174.43,-30.92 358.11,82.93 409.82,251.94 56.92,165.36 -23.25,363.03 -179.55,441.63 -93.67,50.23 -209.59,56.53 -308.38,17.33 -86.86,-33.49 -159.35,-101.64 -199.14,-185.75 -49.93,-103.71 -47.37,-230.96 7.19,-332.4 53.18,-102.04 156.3,-175.61 270.06,-192.75l0 0zm20.39 12.02c-146.36,13.69 -276.47,127.24 -308.97,270.75 -38.11,146.65 32.01,311.71 162.42,388.14 81.54,47.67 187.32,70.52 276.25,30.04 78.8,-32.69 145.08,-94.06 183.49,-170.19 45.7,-88.15 52,-195.5 17.83,-288.57 -26.49,-73.97 -78.5,-138.18 -144.19,-180.93 -55.06,-35.16 -120.65,-59.68 -186.83,-49.24z"/>
    </g>
   </g>
   <g id="_23fcfdfcff">
    <g>
     <path class="fil37" d="M1340.36 1893.63c66.18,-10.44 131.77,14.08 186.83,49.24 65.69,42.75 117.7,106.96 144.19,180.93 34.17,93.07 27.87,200.42 -17.83,288.57 -38.41,76.13 -104.69,137.5 -183.49,170.19 -88.93,40.48 -194.71,17.63 -276.25,-30.04 -130.41,-76.43 -200.53,-241.49 -162.42,-388.14 32.5,-143.51 162.61,-257.06 308.97,-270.75l0 0zm-204.17 167.92c-42.45,53.28 -61.95,121.05 -65.21,188.41 3.95,0.4 11.83,1.09 15.77,1.48 0.09,-87.55 38.9,-174.82 108.14,-229.28 53.08,-44.82 122.32,-62.84 190.38,-67.27l-0.49 -11.33c-95.64,-3.64 -190.88,41.86 -248.59,117.99l0 0zm5.71 170.69c-12.8,127.05 97.11,252.62 226.03,250.36 4.24,0.09 12.71,0.29 16.95,0.39 109.32,1.48 207.81,-86.47 225.33,-193.23 29.65,-135.73 -86.07,-280.6 -226.02,-277.55 -3.85,0.1 -11.53,0.1 -15.37,0.19 -117.01,-0.49 -223.67,102.73 -226.92,219.84l0 0zm-52.89 95.43c7.48,57.72 41.96,118.58 94.45,145.96 -14.08,-27.38 -37.33,-48.26 -52.98,-74.55 -14.58,-23.35 -22.46,-50.82 -41.47,-71.41z"/>
    </g>
   </g>
   <g id="_23373055ff">
    <g>
     <path class="fil38" d="M361.47 1975.08c96.03,-2.07 192.15,-1.48 288.28,-0.4 1.18,60.38 1.47,120.85 -0.1,181.23 -96.13,0.98 -192.35,1.47 -288.38,-0.3 -1.08,-60.18 -1.08,-120.35 0.2,-180.53l0 0zm13.1 13.39c0,51.12 0.3,102.14 -0.3,153.15 87.36,1.48 174.62,0.6 261.98,0.5 0.79,-51.32 0.69,-102.63 -0.19,-153.94 -87.17,0.19 -174.33,-0.79 -261.49,0.29z"/>
    </g>
   </g>
   <g id="_23fdfdfeff">
    <g>
     <path class="fil39" d="M374.57 1988.47c87.16,-1.08 174.32,-0.1 261.49,-0.29 0.88,51.31 0.98,102.62 0.19,153.94 -87.36,0.1 -174.62,0.98 -261.98,-0.5 0.6,-51.01 0.3,-102.03 0.3,-153.15l0 0zm38.21 18.12c-0.59,38.51 -0.49,77.12 -0.29,115.63 3.83,0 11.52,-0.1 15.36,-0.1 -0.69,-34.27 -1.87,-68.54 2.26,-102.63 42.65,0.69 85.4,0.89 128.04,0.89 14.39,-2.06 36.15,4.63 43.24,-12.7 -62.74,-4.23 -125.77,-2.46 -188.61,-1.09z"/>
    </g>
   </g>
   <g id="_2336bbdfff">
    <path class="fil40" d="M1141.9 2232.24c3.25,-117.11 109.91,-220.33 226.92,-219.84 -1.38,14.19 -2.75,28.47 -4.14,42.75 -38.9,3.05 -80.36,-4.04 -117.3,10.14 -24.43,25.81 -17.33,65.9 -19.11,98.49 2.66,25.42 -2.06,59.98 23.05,75.65 36.84,9.64 75.64,5.51 113.36,6.5 5.91,50.62 5.62,101.74 1.19,152.46 -28.37,0.39 -57.52,4.63 -85.4,-2.37 -15.46,-7.78 -29.05,-18.91 -43.33,-28.56 4.33,16.55 6.3,39.99 26.99,43.93 33.38,7.58 67.95,5.81 102.03,7.78 0.59,21.07 1.18,42.25 1.77,63.43 -128.92,2.26 -238.83,-123.31 -226.03,-250.36z"/>
   </g>
   <g id="_231e5890ff">
    <g>
     <path class="fil41" d="M1368.82 2012.4c3.84,-0.09 11.52,-0.09 15.37,-0.19 1.38,14.08 2.65,28.17 4.03,42.25 29.75,2.07 59.98,1.38 89.03,8.47 20,4.63 23.05,27.08 26.6,43.93 -31.42,-31.61 -74.56,-36.74 -116.71,-31.42 -2.46,51.11 -2.46,102.43 0.78,153.54 37.33,0.79 75.45,-3.34 112.09,5.13 31.91,15.36 22.35,57.91 25.51,86.67 -3.06,29.25 6.6,69.63 -21.57,89.03 -37.72,10.64 -77.81,6.31 -116.61,9.06 -0.89,21.28 -1.68,42.65 -2.46,64.12 -4.24,-0.1 -12.71,-0.3 -16.95,-0.39 -0.59,-21.18 -1.18,-42.36 -1.77,-63.43 -34.08,-1.97 -68.65,-0.2 -102.03,-7.78 -20.69,-3.94 -22.66,-27.38 -26.99,-43.93 14.28,9.65 27.87,20.78 43.33,28.56 27.88,7 57.03,2.76 85.4,2.37 4.43,-50.72 4.72,-101.84 -1.19,-152.46 -37.72,-0.99 -76.52,3.14 -113.36,-6.5 -25.11,-15.67 -20.39,-50.23 -23.05,-75.65 1.78,-32.59 -5.32,-72.68 19.11,-98.49 36.94,-14.18 78.4,-7.09 117.3,-10.14 1.39,-14.28 2.76,-28.56 4.14,-42.75l0 0zm-116.02 67.57c-5.32,45.01 -11.52,93.07 0.78,137 30.93,23.15 74.66,9.26 110.91,11.92 6.1,-50.82 5.51,-102.14 2.07,-153.16 -38.02,-1.96 -76.14,-1.96 -113.76,4.24l0 0zm135.03 165.17c-2.95,51.02 -2.76,102.13 -1.09,153.15 36.94,0.2 75.15,5.71 111.3,-4.83 18.02,-44.12 7.58,-94.75 4.43,-141.13 -37.43,-9.75 -76.33,-8.37 -114.64,-7.19z"/>
    </g>
   </g>
   <g id="_2337bbe0ff">
    <path class="fil42" d="M1384.19 2012.21c139.95,-3.05 255.67,141.82 226.02,277.55 -17.52,106.76 -116.01,194.71 -225.33,193.23 0.78,-21.47 1.57,-42.84 2.46,-64.12 38.8,-2.75 78.89,1.58 116.61,-9.06 28.17,-19.4 18.51,-59.78 21.57,-89.03 -3.16,-28.76 6.4,-71.31 -25.51,-86.67 -36.64,-8.47 -74.76,-4.34 -112.09,-5.13 -3.24,-51.11 -3.24,-102.43 -0.78,-153.54 42.15,-5.32 85.29,-0.19 116.71,31.42 -3.55,-16.85 -6.6,-39.3 -26.6,-43.93 -29.05,-7.09 -59.28,-6.4 -89.03,-8.47 -1.38,-14.08 -2.65,-28.17 -4.03,-42.25z"/>
    <path class="fil42" d="M4105.15 2269.07c8.37,3.84 16.75,7.78 25.22,11.42 28.86,12.71 60.77,13 91.69,12.81 95.44,-0.89 190.97,-1.58 286.41,-0.1 -27.78,29.65 -60.48,55.64 -97.9,71.8 -106.77,-3.64 -213.53,1.48 -320.09,-3.35 3.54,-31.03 8.07,-61.95 14.67,-92.58z"/>
   </g>
   <g id="_23322d75ff">
    <path class="fil43" d="M4177.84 2074.75c10.14,3.94 21.96,5.22 30.43,12.8 -1.47,54.47 -22.06,106.28 -25.81,160.64 98.69,1.67 197.48,-0.59 296.16,0 21.38,-1.67 40.29,8.47 57.72,19.89 -6.3,12.61 -15.66,20.98 -27.87,25.12 -95.44,-1.48 -190.97,-0.79 -286.41,0.1 -30.92,0.19 -62.83,-0.1 -91.69,-12.81 9.16,-59.09 21.66,-117.59 33.19,-176.29 4.53,-9.95 9.26,-19.7 14.28,-29.45z"/>
   </g>
   <g id="_23392b6dff">
    <path class="fil44" d="M3737.69 2124.59c7.78,-0.49 23.44,-1.48 31.32,-1.98 22.65,54.08 44.61,109.43 81.84,155.52 19.01,26.59 45.6,46.88 64.22,73.67 5.61,21.67 -23.74,35.75 -37.72,18.81 -61.46,-53.77 -106.47,-124.88 -135.92,-200.62 -6.99,-14.28 -6.1,-30.24 -3.74,-45.4z"/>
   </g>
   <g id="_2336bbe0ff">
    <path class="fil45" d="M1387.83 2245.14c38.31,-1.18 77.21,-2.56 114.64,7.19 3.15,46.38 13.59,97.01 -4.43,141.13 -36.15,10.54 -74.36,5.03 -111.3,4.83 -1.67,-51.02 -1.86,-102.13 1.09,-153.15z"/>
   </g>
   <g id="_23fcfbfbff">
    <path class="fil46" d="M133.67 2270.45c43.72,-1.08 87.55,-1.48 131.28,-0.59 1.28,33.39 1.28,66.87 -0.4,100.26 -21.07,4.14 -44.51,4.92 -62.14,18.61 -18.22,14.09 -26.4,36.45 -36.74,56.24 -7.98,-0.59 -24.03,-1.77 -32,-2.26 -0.79,-57.52 -0.79,-114.94 0,-172.26z"/>
   </g>
   <g id="_23fefefdff">
    <g>
     <path class="fil47" d="M375.16 2404.79c47.96,0.39 95.83,0.79 143.69,-0.49 6.11,118.97 2.96,238.54 1.68,357.61 -48.65,0 -97.31,0.39 -145.86,-0.49 0.29,-118.88 -0.4,-237.75 0.49,-356.63l0 0zm29.94 56.63c0.3,74.56 0.49,149.01 -0.2,223.47 -2.27,11.92 2.56,19.5 14.38,22.75 2.46,-77.12 -0.19,-154.33 1.38,-231.55 22.36,-5.9 63.13,13.69 70.62,-15.46 -28.76,-0.69 -57.52,-0.39 -86.18,0.79z"/>
    </g>
   </g>
   <g id="_23fcf8feff">
    <path class="fil48" d="M234.32 2428.23c13.69,1.48 27.48,3.64 39.4,11.13 -0.89,6.89 -2.86,20.58 -3.85,27.38 -8.96,3.64 -17.82,7.39 -26.69,11.03 -15.26,-13.4 -21.76,-31.82 -8.86,-49.54z"/>
   </g>
   <g id="_23392e69ff">
    <path class="fil49" d="M4437.46 2887.39c6,1.28 17.92,3.84 23.93,5.12 -2.46,50.33 -20.09,98.88 -32.21,147.54 -1.18,18.51 -16.44,25.51 -33.19,20.48 10.74,-58.4 28.66,-115.23 41.47,-173.14z"/>
   </g>
   <g id="_23382c6dff">
    <path class="fil50" d="M3355.55 3178.52c159.94,-83.81 349.15,-110.6 525.84,-73.38 179.05,35.76 343.82,137.2 457.58,279.71 50.03,60.19 85.68,130.02 119.37,200.14 21.27,-35.36 41.07,-71.6 62.44,-106.76 20.78,-51.41 41.56,-103.02 67.76,-151.97 14.67,3.34 38.9,6.3 31.32,27.97 -17.34,52.69 -44.22,101.64 -70.72,150.09 -17.73,48.66 -47.96,91.01 -69.92,137.5 22.85,95.93 40.67,194.41 31.51,293.69 -14.28,250.26 -159.64,483.78 -369.82,617.73 -5.22,-1.58 -15.47,-4.63 -20.59,-6.11 149.41,-90.31 268.09,-231.05 328.66,-395.04 64.02,-168.52 65.3,-359.49 5.51,-529.38 -44.41,-128.43 -125.08,-243.07 -226.82,-332.7 -123.21,-103.71 -278.03,-170.98 -439.07,-183.49 -159.15,-14.08 -322.25,22.36 -459.84,103.62 -160.64,93.96 -285.42,247.6 -343.92,424.29 -60.77,180.63 -51.42,383.71 25.8,557.84 46.09,106.08 117.3,200.23 203.87,276.66 -3.74,1.48 -11.13,4.43 -14.87,6.01 -36.44,-30.92 -66.87,-67.96 -99.77,-102.33 -52.99,13.99 -105.97,28.86 -160.04,38.02 -9.36,-17.53 -5.42,-27.98 11.81,-31.32 43.14,-10.15 86.48,-19.6 129.13,-31.52 -57.42,-87.17 -105.98,-181.22 -128.63,-283.75 -40.88,-169.8 -23.54,-352.89 49.14,-511.75 72.2,-159.26 199.05,-293.2 354.27,-373.77z"/>
    <path class="fil50" d="M507.23 3384.07c-8.86,-20.19 14.58,-29.55 30.24,-31.42 10.25,25.41 43.24,57.32 19.89,83.72 -32.89,11.62 -41.56,-30.14 -50.13,-52.3z"/>
    <path class="fil50" d="M3229.87 4034.3c-5.02,-20.79 20.3,-23.54 35.17,-22.56 20.48,53.48 42.84,107.16 78.69,152.37 20.09,27.77 46.69,49.93 67.27,77.31 4.63,25.02 -27.09,35.26 -41.17,16.35 -64.91,-60.18 -115.92,-137.98 -139.96,-223.47z"/>
   </g>
   <g id="_23382d6aff">
    <g>
     <path class="fil51" d="M3585.72 3182.95c45.5,-9.84 96.03,-4.23 134.34,-35.45 21.67,7.68 39.59,25.31 63.92,25.21 146.65,12.81 291.03,71.01 399.96,170.88 14.58,16.25 37.23,14.09 56.93,16.64 5.12,21.18 6.21,44.92 22.75,61.27 97.21,112.87 155.62,257.55 166.45,406.07 -0.4,21.07 16.64,35.35 27.38,51.71 -10.54,18.31 -28.56,34.07 -27.97,56.82 -10.44,148.33 -70.91,291.73 -167.33,404.6 -15.57,14.68 -14.98,36.54 -20,55.74 -19.79,12.91 -47.47,8.67 -64.21,27.78 -111.79,94.45 -253.51,152.86 -399.47,163.49 -23.64,-2.27 -36.94,20.49 -57.52,26.6 -19.51,-10.45 -36.25,-28.28 -60.08,-26.9 -122.52,-9.45 -241.7,-52.98 -342.85,-122.62 -36.63,-24.13 -66.28,-65 -114.64,-62.74 -5.91,-21.96 -6.6,-46.87 -23.83,-63.72 -96.92,-112.47 -154.63,-256.46 -166.55,-404.1 2.86,-25.9 -38.21,-45.8 -15.95,-69.73 13.79,-16.55 16.84,-37.72 18.61,-58.4 13.4,-140.06 71.31,-275.18 162.11,-382.44 17.24,-16.94 20.19,-40.97 24.73,-63.33 47.37,-0.88 77.6,-39.1 113.95,-63.62 80.47,-56.14 172.75,-95.54 269.27,-113.76l0 0zm-319.31 170.98c-14.76,11.03 -18.22,29.75 -24.42,46 -17.83,7.09 -37.82,12.31 -49.54,28.66 -92.97,108.83 -151.77,246.91 -163.69,389.72 -3.55,20.68 6.5,39.69 10.83,59.39 -2.75,22.85 -15.16,44.52 -10.53,68.15 12.51,139.96 70.12,274.89 160.44,382.24 11.82,16.65 31.71,22.46 48.85,31.62 11.62,14.57 14.08,35.25 29.25,47.47 111.59,96.61 254.89,156.01 402.13,166.64 18.22,2.57 34.08,-7.98 51.02,-12.41 16.55,3.16 31.61,13.3 48.85,12.51 147.64,-8.96 290.94,-68.45 403.41,-164.18 16.35,-12.01 21.38,-32.31 29.15,-49.83 15.67,-6.9 33.98,-10.54 45.31,-24.53 96.62,-110.51 156.2,-252.82 167.73,-399.18 3.44,-20.78 -7.68,-39.1 -14.97,-57.42 7.68,-15.76 18.02,-31.71 15.07,-50.13 -9.56,-145.17 -68.45,-285.62 -161.43,-397.11 -13.2,-17.92 -34.66,-24.62 -54.16,-32.7 -5.72,-14.38 -7.49,-31.32 -18.82,-42.54 -112.28,-96.13 -254.49,-158.37 -402.33,-169.6 -20.48,-2.17 -38.8,8.96 -58.21,13 -19.69,-5.72 -38.9,-16.25 -60.08,-12.61 -144.38,12.41 -284.43,71.9 -393.86,166.84z"/>
    </g>
   </g>
   <g id="_23726f86ff">
    <path class="fil52" d="M4350.49 3176.25c10.14,3.85 20.39,7.69 30.73,11.73 -4.73,12.7 -9.36,25.5 -13.79,38.4 -7.19,-0.39 -21.57,-1.17 -28.75,-1.57 3.04,-16.35 7.18,-32.5 11.81,-48.56z"/>
   </g>
   <g id="_23fdfcfdff">
    <g>
     <path class="fil53" d="M1211.53 3398.06c159.85,-77.52 346.78,-96.13 519.14,-54.07 277.25,64.71 506.93,294.58 571.04,572.02 45.4,185.46 18.42,386.77 -72.58,554.4 -71.11,128.23 -177.87,236.77 -306.41,307.68 -168.02,94.55 -372.19,120.65 -559.22,75.15 -168.71,-40.09 -321.37,-140.06 -428.62,-275.87 -163.79,-206.83 -210.08,-498.85 -117.31,-746.06 68.36,-188.41 213.04,-347.27 393.96,-433.25l0 0zm273.41 -6.7c-146.16,11.42 -287.69,71.2 -398.78,166.74 -15.86,15.17 -38.71,15.47 -58.8,20.39 -5.42,22.06 -7.2,46.68 -24.33,63.62 -95.53,112.28 -153.74,255.39 -164.28,402.43 0.89,22.56 -21.96,36.25 -24.53,57.42 32.6,37.42 25.12,88.54 35.46,133.84 23.15,117.11 76.03,228.21 153.45,319.11 17.43,17.14 18.81,42.06 23.83,64.61 22.56,4.73 47.57,6.31 64.81,23.93 112.47,95.14 255.77,153.45 402.92,163.2 20.48,-0.88 32.79,17.34 49.54,25.81 21.17,-2.86 33.49,-28.56 57.12,-26 146.75,-10.55 289.46,-68.75 401.74,-163.79 17.24,-17.34 42.45,-18.42 64.81,-23.84 3.45,-20.88 2.56,-44.22 19.5,-59.68 88.34,-103.02 146.06,-231.94 163.1,-366.68 3.64,-27.18 1.08,-57.52 21.96,-78.59 22.75,-23.94 -22.16,-42.45 -17.53,-68.75 -10.54,-149.01 -70.32,-293.79 -167.53,-407.25 -16.15,-15.56 -16.05,-38.31 -19.8,-58.8 -25.12,-5.32 -52.29,-8.28 -70.91,-27.88 -110.11,-94.35 -251.05,-149.99 -395.34,-160.63 -22.75,1.57 -36.15,-21.47 -56.82,-24.53 -19.21,10.25 -36.35,26.4 -59.59,25.32z"/>
    </g>
   </g>
   <g id="_23382c6aff">
    <g>
     <path class="fil54" d="M1484.94 3391.36c23.24,1.08 40.38,-15.07 59.59,-25.32 20.67,3.06 34.07,26.1 56.82,24.53 144.29,10.64 285.23,66.28 395.34,160.63 18.62,19.6 45.79,22.56 70.91,27.88 3.75,20.49 3.65,43.24 19.8,58.8 97.21,113.46 156.99,258.24 167.53,407.25 -4.63,26.3 40.28,44.81 17.53,68.75 -20.88,21.07 -18.32,51.41 -21.96,78.59 -17.04,134.74 -74.76,263.66 -163.1,366.68 -16.94,15.46 -16.05,38.8 -19.5,59.68 -22.36,5.42 -47.57,6.5 -64.81,23.84 -112.28,95.04 -254.99,153.24 -401.74,163.79 -23.63,-2.56 -35.95,23.14 -57.12,26 -16.75,-8.47 -29.06,-26.69 -49.54,-25.81 -147.15,-9.75 -290.45,-68.06 -402.92,-163.2 -17.24,-17.62 -42.25,-19.2 -64.81,-23.93 -5.02,-22.55 -6.4,-47.47 -23.83,-64.61 -77.42,-90.9 -130.3,-202 -153.45,-319.11 -10.34,-45.3 -2.86,-96.42 -35.46,-133.84 2.57,-21.17 25.42,-34.86 24.53,-57.42 10.54,-147.04 68.75,-290.15 164.28,-402.43 17.13,-16.94 18.91,-41.56 24.33,-63.62 20.09,-4.92 42.94,-5.22 58.8,-20.39 111.09,-95.54 252.62,-155.32 398.78,-166.74l0 0zm-388.54 177.18c-15.86,12.12 -21.77,31.62 -28.66,49.44 -19.8,8.86 -41.57,16.25 -54.86,34.47 -91.69,110.02 -149.41,248.69 -159.65,391.8 -1.38,20.09 9.95,38.21 11.62,58.01 -4.14,16.74 -13,32.89 -11.62,50.72 11.13,145.27 69.24,286.7 164.67,396.91 12.51,15.66 32.21,21.96 49.64,30.53 6.21,15.17 10.24,32.4 23.34,43.53 111.4,97.31 254.8,157 402.24,168.42 18.41,2.85 34.96,-6.5 51.41,-13.39 18.71,6.4 37.62,15.95 58.2,13.19 118.98,-9.55 235.39,-50.32 334.18,-117.59 31.81,-23.74 71.11,-44.03 85.39,-83.52 7.78,-21.57 36.34,-20.29 49.93,-36.94 97.21,-110.69 156.9,-253.9 168.32,-400.75 3.64,-18.91 -7.98,-34.86 -13.4,-51.9 1.09,-16.94 15.08,-30.83 13.79,-48.17 -8.77,-147.83 -67.76,-292.12 -163.78,-404.88 -12.12,-16.35 -31.91,-22.07 -49.84,-29.26 -7.29,-20.68 -13.79,-43.33 -32.89,-56.43 -111.89,-88.35 -248.99,-147.24 -391.89,-157.78 -20.78,-3.25 -39.2,8.18 -57.62,15.86 -15.96,-8.57 -32.5,-19.5 -51.61,-16.06 -145.08,10.93 -286.4,69.04 -396.91,163.79z"/>
    </g>
   </g>
   <g id="_233abadfff">
    <path class="fil55" d="M3671.01 3484.82c27.09,-0.78 54.17,-0.78 81.26,0.3 -1.58,23.34 -1.58,46.68 -1.98,70.03 -25.51,0.69 -50.91,0.29 -76.33,-1.58 -0.68,-22.95 -1.08,-45.9 -2.95,-68.75z"/>
   </g>
   <g id="_2338bbdfff">
    <path class="fil56" d="M3408.83 3635.12c54.66,-70.82 134.84,-119.66 221.11,-141.83 -0.69,19.8 -1.38,39.7 -1.97,59.69 -35.85,2.76 -72.29,0.4 -107.45,8.37 -35.65,13.3 -52.1,52.79 -50.82,88.74 -0.59,138.08 0.49,276.26 -0.39,414.34 -1.58,36.64 8.46,80.18 45.79,95.83 35.76,11.83 74.26,8.08 111.3,11.63 2.26,28.66 5.12,57.32 8.66,85.88 10.45,-0.1 20.88,-0.1 31.42,-0.1 4.14,-28.85 7,-57.81 8.96,-86.77 24.43,-1.67 48.95,-1.97 73.48,-1.18 2.06,28.66 4.13,57.32 6.89,85.98 10.44,1.18 21.08,2.37 31.71,3.65 5.62,-29.26 8.77,-58.8 11.63,-88.35 62.34,-4.92 124.78,-1.97 187.12,-0.68 -33.88,45.49 -88.93,68.94 -140.54,88.24 -109.12,33.97 -233.42,22.36 -331.02,-38.41 -91.69,-54.96 -158.57,-149.22 -181.02,-253.61 -26.6,-114.15 2.16,-239.73 75.14,-331.42z"/>
   </g>
   <g id="_234ebbdcff">
    <path class="fil20" d="M3794.71 3491.82c66.68,6.69 125.97,41.56 179.85,79.18l-1.58 5.71c-8.18,29.75 -19.4,58.51 -27.48,88.25 -6.6,-34.56 -10.74,-78.49 -44.81,-97.6 -32.6,-12.61 -68.35,-11.62 -102.62,-14.77 -2.27,-20.2 -2.96,-40.58 -3.36,-60.77z"/>
   </g>
   <g id="_2361639aff">
    <path class="fil22 str0" d="M3798.07 3552.59c34.27,3.15 70.02,2.16 102.62,14.77 34.07,19.11 38.21,63.04 44.81,97.6 -4.73,57.12 -4.83,114.54 0.59,171.67l-8.66 -1.87c-1.58,-53.68 1.57,-107.46 -0.99,-161.23 -13.4,5.32 -26.79,10.63 -40.09,16.05 -1.96,-25.7 3.16,-54.76 -10.43,-77.7 -22.75,-13.99 -51.61,-10.64 -77.22,-12.61 -3.74,-15.56 -7.58,-31.02 -10.63,-46.68z"/>
   </g>
   <g id="_2358c2e1ff">
    <path class="fil20" d="M3528.1 3607.34c92.68,-15.46 187.14,-3.24 280.6,-8.07 25.61,1.97 54.47,-1.38 77.22,12.61 13.59,22.94 8.47,52 10.43,77.7 -0.78,49.45 -1.08,98.89 -2.06,148.33 -6.11,0.59 -18.22,1.77 -24.33,2.26 20.48,-45.99 18.12,-97.11 13.1,-146.05 -31.03,-10.25 -61.56,-21.87 -91.59,-34.48 -4.14,-14.38 -8.38,-28.76 -12.31,-43.13 -83.33,-11.53 -167.64,2.06 -251.06,-9.17z"/>
   </g>
   <g id="_23463a78ff">
    <path class="fil57" d="M1891.31 3632.85c14.57,-1.47 29.15,-2.95 43.72,-4.43 9.85,7.88 19.8,15.76 29.85,23.64 -10.05,19.11 -22.46,36.84 -37.92,52 -13.39,-15.46 -27.57,-30.13 -42.15,-44.32 1.57,-6.7 4.82,-20.19 6.5,-26.89z"/>
   </g>
   <g id="_232d3076ff">
    <path class="fil58" d="M1526.31 3706.13c12.7,-1.08 25.4,-1.48 38.21,-1.18 2.95,23.14 5.91,46.49 9.26,69.73 44.12,0.1 88.54,-1.68 132.46,4.03 4.14,16.16 6.31,33.3 14.48,48.17 13.2,11.92 29.45,19.7 44.62,28.75 -9.65,9.17 -18.62,18.91 -27.38,28.86 -12.81,-21.96 -25.51,-43.72 -38.91,-65.19 -41.85,-0.5 -83.71,-1.78 -125.37,1.48l-7.98 0.88c0.19,44.71 1.28,89.53 -2.36,134.24 -6.01,-1.18 -17.93,-3.64 -23.94,-4.83 -4.83,-15.26 -9.55,-30.53 -13,-45.99 -1.67,-28.46 -1.87,-56.83 -3.35,-85.19 -53.67,-0.5 -108.34,-7 -161.42,3.74 -24.53,4.92 -21.27,33.68 -22.85,52.79 -0.3,48.75 -2.07,97.7 1.58,146.45 -0.4,15.17 9.64,29.45 25.01,32.5 41.96,11.82 83.42,25.51 122.03,46 -45.79,0 -92.48,6.6 -137.69,-3.15 -35.85,-9.75 -55.25,-47.77 -55.05,-82.83 -1.97,-55.84 -3.45,-111.98 1.67,-167.63 2.17,-36.84 32.31,-69.44 69.74,-71.5 51.7,-4.64 103.7,-0.1 155.5,-1.28 1.68,-22.95 3.26,-45.9 4.74,-68.85z"/>
   </g>
   <g id="_233eb9deff">
    <path class="fil21 str2" d="M1564.52 3704.95c99.97,2.56 195.4,49.73 264.84,120.45 -21.67,9.36 -43.83,17.83 -64.02,30.23 -5.61,-34.46 -21.08,-69.73 -59.1,-76.92 -43.92,-5.71 -88.34,-3.93 -132.46,-4.03 -3.35,-23.24 -6.31,-46.59 -9.26,-69.73z"/>
   </g>
   <g id="_235c699fff">
    <path class="fil22 str0" d="M1706.24 3778.71c38.02,7.19 53.49,42.46 59.1,76.92 -15.17,-9.05 -31.42,-16.83 -44.62,-28.75 -8.17,-14.87 -10.34,-32.01 -14.48,-48.17z"/>
   </g>
   <g id="_2336bce0ff">
    <path class="fil21" d="M1361.63 3823.63c53.08,-10.74 107.75,-4.24 161.42,-3.74 1.48,28.36 1.68,56.73 3.35,85.19 -12.41,15.26 -23.34,32.5 -39.69,44.12 -16.94,8.77 -36.74,9.06 -55.25,11.92 3.25,33.39 -0.4,67.27 -16.25,97.4 -16.65,-0.58 -33.29,-1.47 -49.84,-3.15 -15.37,-3.05 -25.41,-17.33 -25.01,-32.5 -3.65,-48.75 -1.88,-97.7 -1.58,-146.45 1.58,-19.11 -1.68,-47.87 22.85,-52.79z"/>
   </g>
   <g id="_23606098ff">
    <path class="fil22 str0" d="M1565.7 3821.66l7.98 -0.88c-1.28,21.36 -2.37,42.74 -2.96,64.21 -0.09,59.68 -6.6,119.86 3.45,179.15 -16.06,14.77 -32.6,28.96 -49.24,42.94 -12.51,-1.97 -25.02,-3.84 -37.53,-5.71 -38.61,-20.49 -80.07,-34.18 -122.03,-46 16.55,1.68 33.19,2.57 49.84,3.15 35.95,0.4 71.9,-0.98 107.75,-3.04 0.49,-50.24 -0.4,-100.37 3.44,-150.4 3.45,15.46 8.17,30.73 13,45.99 6.01,1.19 17.93,3.65 23.94,4.83 3.64,-44.71 2.55,-89.53 2.36,-134.24z"/>
   </g>
   <g id="_235dc7e6ff">
    <path class="fil21 str2" d="M1573.68 3820.78c41.66,-3.26 83.52,-1.98 125.37,-1.48 13.4,21.47 26.1,43.23 38.91,65.19 -8.08,5.82 -13.89,22.16 -26.01,18.72 -19.4,-9.56 -35.94,-23.84 -53.27,-36.45 -4.24,6.6 -8.48,13.2 -12.61,19.9 13.69,21.77 26.49,44.12 37.92,67.27 -41.76,-15.76 -78.7,-41.07 -113.27,-68.94 0.59,-21.47 1.68,-42.85 2.96,-64.21z"/>
   </g>
   <g id="_2334bce1ff">
    <path class="fil59" d="M3514.51 3880.65c150.4,8.47 301.28,0.4 451.87,4.34 19.99,-0.89 45.21,9.45 44.52,33.09 2.17,57.71 2.17,115.82 0,173.64 -0.1,28.07 -32.4,33.88 -54.37,33.39 -121.63,0.78 -243.27,-0.4 -365,0.59 -20.78,-1.38 -43.63,1.67 -62.54,-8.67 -18.12,-11.03 -14.67,-34.38 -15.86,-52.3 0.4,-61.36 -0.69,-122.82 1.38,-184.08z"/>
   </g>
   <g id="_2362cbe9ff">
    <path class="fil21 str2" d="M1486.71 3949.2c16.35,-11.62 27.28,-28.86 39.69,-44.12 -3.84,50.03 -2.95,100.16 -3.44,150.4 -35.85,2.06 -71.8,3.44 -107.75,3.04 15.85,-30.13 19.5,-64.01 16.25,-97.4 18.51,-2.86 38.31,-3.15 55.25,-11.92z"/>
   </g>
   <g id="_23372f5fff">
    <path class="fil60" d="M2764.12 4407.67c13,-1.08 26.2,-1.67 39.4,-1.67 4.33,8.46 7.09,17.63 8.47,27.47 -15.37,1.09 -30.63,2.27 -45.8,3.46 -0.5,-7.29 -1.58,-21.97 -2.07,-29.26z"/>
   </g>
   <g id="_233b3168ff">
    <path class="fil61" d="M2460.58 4419.59c44.21,-1.87 88.64,-1.48 132.86,1.18 0.1,6.4 0.19,19.4 0.19,25.9 -44.22,3.45 -88.54,2.17 -132.76,-0.2 -0.1,-6.69 -0.2,-20.09 -0.29,-26.88z"/>
   </g>
   <g id="_233a2a74ff">
   </g>
   <g id="_236f629bff">
   </g>
   <g id="_23423775ff">
   </g>
   <g id="_23655797ff">
   </g>
   <g id="_23685d99ff">
   </g>
   <g id="_2370629dff">
   </g>
   <g id="_233b2c6eff">
   </g>
   <g id="_236a5c97ff">
   </g>
   <g id="_236f619bff">
   </g>
   <g id="_236b5d99ff">
   </g>
   <g id="_23413571ff">
   </g>
  </g>
 </g>
</svg>
