<?xml version="1.0" encoding="UTF-8" ?>
<!DOCTYPE svg PUBLIC "-//W3C//DTD SVG 1.1//EN" "http://www.w3.org/Graphics/SVG/1.1/DTD/svg11.dtd">
<svg width="293pt" height="107pt" viewBox="0 0 293 107" version="1.1" xmlns="http://www.w3.org/2000/svg">
<g id="#080808ff">
<path fill="#080808" opacity="1.00" d=" M 46.05 31.83 C 56.58 22.61 67.04 13.28 77.36 3.81 C 80.74 6.73 83.53 10.22 86.41 13.61 C 90.86 19.09 96.05 24.01 100.05 29.84 C 97.81 32.64 94.98 34.86 92.20 37.09 C 93.90 37.21 95.60 37.37 97.30 37.52 C 97.21 49.34 97.24 61.16 97.30 72.98 C 97.17 74.76 97.47 76.79 96.38 78.33 C 94.81 79.43 92.79 79.19 90.98 79.30 C 77.33 79.19 63.69 79.31 50.04 79.22 C 46.46 79.24 42.69 78.87 39.35 80.44 C 28.32 85.20 17.23 89.81 6.19 94.52 C 4.21 95.63 2.02 95.62 0.00 94.63 L 0.00 50.81 C 1.02 49.10 2.82 48.20 4.60 47.47 C 15.84 42.81 27.02 37.99 38.20 33.19 C 40.67 32.09 43.40 32.02 46.05 31.83 M 69.54 14.15 C 72.63 16.75 68.62 20.79 71.31 23.59 C 73.18 27.03 77.35 27.15 80.60 25.86 C 82.44 27.54 84.25 29.27 86.00 31.05 C 84.50 30.78 83.01 30.51 81.51 30.24 C 80.81 31.08 80.12 31.93 79.43 32.78 C 80.92 33.20 82.40 33.75 83.95 33.91 C 85.95 33.83 88.13 33.00 89.85 34.48 C 90.58 33.79 91.30 33.09 92.03 32.40 C 91.54 32.09 90.56 31.48 90.07 31.17 C 90.75 28.62 91.63 25.68 89.61 23.47 C 87.88 20.15 83.76 20.81 80.71 21.26 C 78.46 19.81 76.72 17.66 74.73 15.88 C 76.39 16.46 78.08 16.97 79.78 17.44 C 80.25 16.83 81.19 15.62 81.65 15.01 C 80.42 14.48 79.20 13.92 77.90 13.56 C 75.74 13.29 73.22 15.00 71.58 12.86 C 70.90 13.29 70.22 13.72 69.54 14.15 M 91.20 37.57 C 89.24 40.40 86.53 42.54 83.86 44.65 C 84.84 44.68 86.80 44.76 87.79 44.79 C 87.31 47.78 84.20 47.21 81.96 47.29 C 69.97 47.19 57.98 47.31 45.98 47.21 C 43.93 47.20 41.82 47.23 39.91 48.09 C 30.20 51.98 20.58 56.15 10.77 59.77 C 10.41 59.30 9.71 58.35 9.36 57.88 C 14.16 54.79 20.05 53.96 24.86 50.92 C 29.30 46.87 33.81 42.90 38.42 39.05 C 27.54 44.01 16.44 48.47 5.48 53.25 C 5.49 65.11 5.59 76.98 5.42 88.84 C 15.26 84.46 25.22 80.34 35.09 76.03 C 37.93 74.81 40.80 73.30 43.99 73.48 C 59.92 73.55 75.85 73.41 91.78 73.56 C 91.96 62.13 91.15 50.64 92.16 39.25 C 91.85 38.68 91.53 38.12 91.20 37.57 Z" />
<path fill="#080808" opacity="1.00" d=" M 72.90 18.59 C 74.96 20.19 76.75 22.10 78.28 24.20 C 75.14 23.98 72.75 21.88 72.90 18.59 Z" />
<path fill="#080808" opacity="1.00" d=" M 104.63 50.98 C 106.77 40.12 108.30 28.59 114.85 19.31 C 116.86 20.06 118.85 20.86 120.81 21.75 C 119.46 28.25 116.12 34.17 115.17 40.77 C 122.52 36.01 129.44 30.62 136.69 25.71 C 138.63 24.23 141.41 24.43 143.38 25.74 C 143.96 26.75 144.31 28.20 143.27 29.07 C 138.20 34.12 132.17 38.09 127.01 43.02 C 125.22 44.50 126.55 46.89 127.52 48.43 C 132.20 55.63 136.51 63.17 142.38 69.50 C 143.64 70.79 144.59 72.34 145.23 74.03 C 141.24 73.89 138.63 70.53 135.71 68.27 C 129.45 63.19 125.65 55.97 120.91 49.60 C 117.77 52.27 114.00 54.41 111.61 57.81 C 110.34 63.58 112.37 69.72 110.07 75.34 C 108.19 74.39 105.27 74.01 104.73 71.59 C 104.12 64.75 103.10 57.79 104.63 50.98 Z" />
<path fill="#080808" opacity="1.00" d=" M 82.79 23.63 C 86.25 23.24 88.30 25.70 88.22 28.98 C 86.30 27.31 84.50 25.51 82.79 23.63 Z" />
<path fill="#080808" opacity="1.00" d=" M 193.18 28.43 C 201.82 25.91 211.33 24.86 219.94 28.02 C 223.41 29.94 227.80 33.44 226.63 37.93 C 225.34 40.42 223.06 42.22 220.81 43.80 C 214.16 48.21 206.53 50.95 198.77 52.67 C 196.86 53.15 194.15 53.36 194.16 55.94 C 192.95 64.50 191.01 73.12 192.12 81.81 C 189.07 80.92 187.21 78.08 186.96 75.01 C 185.61 61.52 190.06 48.46 193.74 35.69 C 191.93 34.35 190.11 33.02 188.31 31.68 C 189.75 30.35 191.21 28.90 193.18 28.43 M 200.93 35.07 C 199.07 38.90 197.71 43.00 197.05 47.21 C 202.50 45.93 207.25 42.85 212.02 40.05 C 214.76 38.48 217.28 36.56 219.49 34.29 C 215.12 32.76 210.44 32.77 205.89 33.11 C 204.11 33.26 202.16 33.65 200.93 35.07 Z" />
<path fill="#080808" opacity="1.00" d=" M 238.23 41.10 C 241.40 35.77 246.75 30.70 253.29 30.56 C 254.28 33.62 251.58 35.83 249.89 37.97 C 248.06 39.81 246.47 42.15 243.99 43.14 C 241.76 43.95 240.00 42.10 238.23 41.10 Z" />
<path fill="#080808" opacity="1.00" d=" M 265.84 42.88 C 273.47 38.50 285.61 42.22 287.43 51.43 C 288.80 57.96 288.78 64.76 288.36 71.39 C 285.92 72.98 284.54 68.70 282.09 68.96 C 280.23 69.71 278.74 71.12 276.89 71.90 C 272.23 72.98 266.93 71.90 263.33 68.66 C 260.79 66.46 260.95 62.55 262.41 59.78 C 264.04 56.81 266.41 54.18 269.33 52.41 C 272.69 50.36 277.18 51.68 280.30 49.10 C 276.21 45.26 270.18 47.92 265.23 46.46 C 265.40 45.26 265.52 44.05 265.84 42.88 M 269.10 63.44 C 267.96 65.52 269.01 69.29 271.92 68.48 C 275.44 67.59 279.14 65.90 281.14 62.71 C 281.88 60.66 280.83 58.52 280.54 56.47 C 275.48 53.73 270.69 59.04 269.10 63.44 Z" />
<path fill="#080808" opacity="1.00" d=" M 161.07 44.17 C 166.35 41.97 172.78 43.25 177.00 47.01 C 179.06 49.93 176.90 53.59 174.67 55.71 C 170.88 59.10 166.30 62.16 161.05 62.32 C 162.64 65.24 165.45 67.77 169.00 67.59 C 174.02 67.86 176.81 62.97 181.17 61.46 C 181.62 62.70 182.06 63.93 182.51 65.17 C 180.88 70.01 175.86 72.54 170.96 72.30 C 160.47 73.20 150.50 63.57 151.56 52.98 C 152.01 48.08 157.01 45.69 161.07 44.17 M 159.52 53.42 C 159.16 54.80 158.71 57.22 160.89 57.01 C 164.31 54.53 169.50 52.41 169.67 47.57 C 165.32 46.40 161.15 49.55 159.52 53.42 Z" />
<path fill="#080808" opacity="1.00" d=" M 227.83 47.86 C 229.30 43.72 235.79 46.22 235.49 49.97 C 234.81 53.64 233.21 57.16 233.29 60.96 C 232.68 65.12 239.64 66.87 241.61 63.50 C 245.36 59.63 245.07 54.04 245.53 49.08 C 245.98 46.06 250.34 46.06 252.16 47.84 C 253.65 49.20 252.91 51.27 252.80 52.98 C 251.83 59.48 254.16 65.78 255.06 72.14 C 253.04 71.96 250.44 72.93 248.93 71.12 C 247.62 69.51 246.76 67.59 245.76 65.78 C 242.83 68.33 240.30 72.31 236.00 72.31 C 232.44 72.68 229.34 70.03 228.11 66.86 C 225.65 60.85 226.26 54.01 227.83 47.86 Z" />
<path fill="#080808" opacity="1.00" d=" M 47.41 51.40 C 59.94 51.32 72.51 51.45 85.05 51.36 C 86.38 50.97 88.72 52.64 86.99 53.95 C 75.02 54.49 63.00 53.97 51.01 54.21 C 49.08 53.96 45.62 54.95 45.77 51.95 C 46.18 51.81 47.00 51.54 47.41 51.40 Z" />
<path fill="#080808" opacity="1.00" d=" M 40.46 53.40 C 41.54 52.43 42.35 52.60 42.91 53.93 C 43.31 59.31 42.92 64.72 43.07 70.12 C 42.57 70.34 41.55 70.77 41.05 70.99 C 40.81 70.48 40.34 69.46 40.10 68.95 C 40.55 63.78 39.94 58.57 40.46 53.40 Z" />
<path fill="#080808" opacity="1.00" d=" M 15.15 62.05 C 21.79 59.62 28.15 56.38 34.88 54.21 C 37.08 54.51 35.90 56.89 34.37 57.19 C 28.02 59.93 21.53 62.36 15.20 65.18 C 13.39 66.05 11.42 66.46 9.43 66.61 C 9.74 63.61 12.88 63.04 15.15 62.05 Z" />
</g>
</svg>
